<svg width="18" height="18" fill="none" xmlns="http://www.w3.org/2000/svg"><path d="M12.61 2.813a.516.516 0 01.515-.516h1.547V.75a.516.516 0 111.031 0v1.547h1.547a.516.516 0 110 1.031h-1.547v1.547a.516.516 0 11-1.031 0V3.328h-1.547a.516.516 0 01-.516-.515zm5.047 4.805a8.744 8.744 0 01-2.748 7.85.514.514 0 01-.1.09 8.747 8.747 0 01-11.618 0 .512.512 0 01-.101-.09A8.762 8.762 0 0110.382.343a.515.515 0 11-.161 1.018 7.73 7.73 0 00-6.85 12.936A6.667 6.667 0 016.807 11.6a3.953 3.953 0 114.384 0 6.667 6.667 0 013.438 2.697A7.706 7.706 0 0016.64 7.78a.516.516 0 111.018-.161zM9 11.234A2.922 2.922 0 109 5.39a2.922 2.922 0 000 5.844zm0 5.5a7.698 7.698 0 004.86-1.722 5.675 5.675 0 00-9.72 0A7.697 7.697 0 009 16.734z" fill="#FFD335"/></svg>