<svg width="18" height="18" fill="none" xmlns="http://www.w3.org/2000/svg"><g clip-path="url(#clip0_150_43)" stroke="#FFD335" stroke-miterlimit="10"><path d="M15.84 7.2a.72.72 0 00-1.44 0v5.4a.72.72 0 001.44 0V7.2zm-5.76 9.72a.72.72 0 000-1.44h-1.8a.72.72 0 000 1.44h1.8zM2.88 6.84a6.12 6.12 0 1112.24 0m.72.36c.994 0 1.8 1.209 1.8 2.7 0 1.49-.806 2.7-1.8 2.7"/><path d="M2.16 7.2a.72.72 0 011.44 0v5.4a.72.72 0 01-1.44 0V7.2zm0 0c-.994 0-1.8 1.209-1.8 2.7 0 1.49.806 2.7 1.8 2.7m12.96.72c0 1.8-1.08 2.88-2.88 2.88H10.8"/></g><defs><clipPath id="clip0_150_43"><path fill="#fff" d="M0 0h18v18H0z"/></clipPath></defs></svg>