<svg id="Capa_1" enable-background="new 0 0 511.919 511.919" height="512" viewBox="0 0 511.919 511.919" width="512" xmlns="http://www.w3.org/2000/svg"><g><g><path d="m48.454 222.27h-40.182c-4.203 0-7.61-3.407-7.61-7.61s3.407-7.61 7.61-7.61h40.182c4.203 0 7.61 3.407 7.61 7.61s-3.407 7.61-7.61 7.61z" fill="#fca863"/></g><g><path d="m48.454 371.607h-40.844c-4.203 0-7.61-3.407-7.61-7.61s3.407-7.61 7.61-7.61h40.844c4.203 0 7.61 3.407 7.61 7.61s-3.407 7.61-7.61 7.61z" fill="#fca863"/></g><g><path clip-rule="evenodd" d="m483.994 170.958v229.892c0 4.789-1.238 9.315-3.43 13.252-2.537 4.627-6.372 8.452-10.999 10.989-3.917 2.151-8.402 3.369-13.161 3.369h-380.362c-3.247 0-6.372-.568-9.274-1.624-5.185-1.857-9.67-5.246-12.897-9.599-3.409-4.597-5.419-10.269-5.419-16.387v-229.892c0-15.18 12.4-27.61 27.59-27.61h380.362c15.16 0 27.59 12.43 27.59 27.61z" fill="#fcd79f" fill-rule="evenodd"/></g><g><path clip-rule="evenodd" d="m76.038 163.527v209.856c0 13.762 16.136 25.048 29.885 25.048h378.067v-29.597c-.058 0-.115 0-.173 0h-353.933c-15.446 0-28.073-12.668-28.073-28.129v-197.361h-25.773z" fill="#fac574" fill-rule="evenodd"/></g><g><path d="m101.81 292.087h-94.2c-4.203 0-7.61-3.407-7.61-7.61s3.407-7.61 7.61-7.61h94.2c4.203 0 7.61 3.407 7.61 7.61s-3.407 7.61-7.61 7.61z" fill="#fca863"/></g><g><path d="m66.768 426.836 93.84-60.659c3.521-2.283 4.536-6.991 2.253-10.522-2.273-3.531-6.991-4.546-10.512-2.263l-97.3 62.891c-.426.284-.822.599-1.177.944-.01 0 0 .01 0 .01z" fill="#fca863"/></g><g><path d="m480.565 414.101c-2.537 4.627-6.372 8.452-10.999 10.989l-91.608-59.241c-3.531-2.283-4.536-6.991-2.263-10.523 2.283-3.531 6.991-4.546 10.523-2.263l93.931 60.743c.142.093.284.194.416.295z" fill="#fca863"/></g><g><path clip-rule="evenodd" d="m511.919 111.557v229.151c0 2.892-.446 5.682-1.258 8.3-3.562 11.446-14.277 19.827-26.839 19.827h-353.94c-12.42 0-23.014-8.189-26.687-19.432-.903-2.74-1.39-5.662-1.39-8.696v-229.15c0-.213 0-.416.02-.629.325-15.17 12.826-27.468 28.057-27.468h353.94c13.841 0 25.439 10.157 27.691 23.389.274 1.532.406 3.105.406 4.708z" fill="#fcd79f" fill-rule="evenodd"/></g><g><path clip-rule="evenodd" d="m472.484 111.559v33.541l39.435-28.935v-4.607c0-15.461-12.656-28.1-28.102-28.1h-39.406c15.446.002 28.073 12.641 28.073 28.101z" fill="#fac574" fill-rule="evenodd"/></g><g><path clip-rule="evenodd" d="m472.484 340.705c0 15.461-12.627 28.129-28.073 28.129h39.406.173c15.36-.086 27.929-12.726 27.929-28.129l-27.929-18.052-11.505-7.399v25.451z" fill="#fac574" fill-rule="evenodd"/></g><g><path clip-rule="evenodd" d="m472.484 148.556v166.698l11.506 7.399 27.929 18.052v-224.539l-39.435 28.935z" fill="#fac574" fill-rule="evenodd"/></g><g><path d="m266.005 244.26-4.394 2.841-158.415 102.303c-.903-2.74-1.39-5.662-1.39-8.696v-8.513l146.676-94.733 9.264-5.987c2.679-1.725 6.027-1.563 8.493.152l.406.304c.619.497 1.167 1.106 1.624 1.806 2.282 3.532 1.267 8.24-2.264 10.523z" fill="#fca863"/></g><g><path d="m511.919 331.697v9.011c0 2.892-.446 5.682-1.258 8.3l-161.186-104.21-4.404-2.841c-3.531-2.283-4.536-6.991-2.263-10.522.518-.802 1.167-1.471 1.897-2.009l.112-.081c2.466-1.735 5.835-1.908 8.513-.173l9.274 5.997z" fill="#fca863"/></g><g><path d="m511.919 111.557v13.891l-49.518 36.499-99.796 73.221-8.899 6.524-4.231 3.105-31.141 22.872c-1.573 1.146-2.861 2.141-3.927 2.963-3.714 2.872-6.403 4.942-10.441 4.942-4.049 0-6.87-2.182-10.441-4.942-1.065-.832-2.344-1.816-3.907-2.973l-28.006-20.558-13.13-9.64-146.677-107.67.02-18.863 52.724 38.752 111.689 81.948.406.304 31.983 23.46c1.684 1.248 3.064 2.314 4.221 3.207.365.284.751.578 1.116.862.375-.284.761-.578 1.136-.872 1.157-.893 2.537-1.959 4.221-3.196l35.383-25.966.112-.081 108.584-79.665 58.112-42.831c.275 1.531.407 3.104.407 4.707z" fill="#fca863"/></g></g></svg>