<svg width="121" height="130" fill="none" xmlns="http://www.w3.org/2000/svg"><path d="M38.797.237l4.355 14.504L17.715 1.559l16.998 20.922-30.534 5.164 30.533 5.29L18.616 53.2l17.528-9.004-.48 15.86 5.348-10.065V32.68l.203-.47 8.6-20.148L38.796.237zm39.42 0l-9.948 10.68 8.987 21.3.202.472v18.793l4.178 7.867-.438-14.672 17.663 9.18-16.998-20.922 30.533-5.29-30.533-5.162L98.861 1.56 73.945 14.472 78.215.238l.001-.001zM59.188 2.35L45.932 33.212v41.373l9.416 9.417c.786-17.637 2.15-34.752 4.11-50.596 2.05 16.558 3.435 34.708 4.187 53.367l8.793-8.793V33.212L59.19 2.351zM.929 51.751l10.065 25.353 52.263 52.272h8.305c-17.88-18.464-34.63-37.465-48.684-55.49 20.136 15.7 41.806 35.129 62.346 55.49h8.373L26.18 61.951.928 51.751zm119.899 0L95.593 61.943 64.436 93.099l4.894 4.885c9.778-8.653 19.491-16.782 28.874-24.098-7.36 9.438-15.46 19.142-24.072 28.899l5.482 5.475 31.139-31.14 10.074-25.37.001.001zm-78.679 63.635l-13.99 13.99h7.707a851.627 851.627 0 0110.267-10.006l-3.983-3.985-.001.001zm10.613 10.621a812.474 812.474 0 01-3.243 3.369h6.612l-3.37-3.369z" fill="#fff"/></svg>