<svg width="25" height="25" viewBox="0 0 25 25" fill="none" xmlns="http://www.w3.org/2000/svg">
<g clip-path="url(#clip0_548_534)">
<path d="M24.3455 2.33483C23.8859 1.84607 23.24 1.56677 22.565 1.56677C21.2209 1.56677 20.1328 2.65485 20.1328 3.99896C20.1328 4.21424 20.1619 4.42953 20.2201 4.639L17.5843 6.50678C16.6417 5.55253 15.0997 5.54089 14.1455 6.48351C13.4705 7.15265 13.2436 8.14763 13.5694 9.0437L11.1372 11.0919C10.3692 9.99214 8.85635 9.71866 7.75081 10.4867C7.33187 10.7776 7.01767 11.1966 6.84893 11.6737L4.82986 10.8533C4.60294 9.52665 3.35193 8.6364 2.02529 8.86332C0.698642 9.09025 -0.191607 10.3413 0.0353193 11.6679C0.262246 12.9945 1.51325 13.8848 2.8399 13.6579C3.71269 13.5124 4.4342 12.9014 4.73095 12.0694L6.75001 12.8898C6.97694 14.2165 8.22794 15.1067 9.55458 14.8798C10.7241 14.6819 11.5795 13.6695 11.5795 12.4825C11.5795 12.4069 11.5736 12.3254 11.5678 12.2498L14.2211 10.0096C15.2161 10.9115 16.7522 10.8417 17.6541 9.84667C18.2302 9.21244 18.428 8.32219 18.1836 7.50758L20.7903 5.65726C21.7097 6.64061 23.2458 6.68716 24.2291 5.77363C25.2125 4.85429 25.259 3.31818 24.3455 2.33483ZM2.43259 12.5349C1.73436 12.5349 1.16413 11.9646 1.16413 11.2664C1.16413 10.5682 1.73436 9.99795 2.43259 9.99795C3.13083 9.99795 3.70105 10.5682 3.70105 11.2664C3.70105 11.9646 3.13083 12.5349 2.43259 12.5349ZM9.14146 13.7568C8.44323 13.7568 7.873 13.1866 7.873 12.4883C7.873 11.7901 8.44323 11.2199 9.14146 11.2199C9.8397 11.2199 10.4099 11.7901 10.4099 12.4883C10.4099 13.1866 9.84552 13.7568 9.14146 13.7568ZM15.8562 9.48591C15.1579 9.48591 14.5877 8.91569 14.5877 8.21746C14.5877 7.51922 15.1579 6.949 15.8562 6.949C16.5544 6.949 17.1246 7.51922 17.1246 8.21746C17.1246 8.91569 16.5544 9.48591 15.8562 9.48591ZM22.565 5.26742C21.8668 5.26742 21.2966 4.69719 21.2966 3.99896C21.2966 3.30072 21.8668 2.7305 22.565 2.7305C23.2633 2.7305 23.8335 3.30072 23.8335 3.99896C23.8335 4.70301 23.2691 5.26742 22.565 5.26742Z" fill="#E2CD96"/>
<path d="M24.1948 8.36292H20.9364C20.6163 8.36292 20.3545 8.62475 20.3545 8.94478V22.7931C20.3545 23.1131 20.6163 23.3749 20.9364 23.3749H24.1948C24.5148 23.3749 24.7766 23.1131 24.7766 22.7931V8.94478C24.7766 8.62475 24.5148 8.36292 24.1948 8.36292ZM23.6129 22.2694H21.5182V9.52664H23.6129V22.2694Z" fill="#E2CD96"/>
<path d="M17.5034 12.5523H14.2449C13.9249 12.5523 13.6631 12.8142 13.6631 13.1342V22.7931C13.6631 23.1131 13.9249 23.375 14.2449 23.375H17.5034C17.8234 23.375 18.0852 23.1131 18.0852 22.7931V13.1342C18.0852 12.8142 17.8234 12.5523 17.5034 12.5523ZM16.9215 22.2694H14.8268V13.7161H16.9215V22.2694Z" fill="#E2CD96"/>
<path d="M10.7544 16.9163H7.49593C7.1759 16.9163 6.91406 17.1782 6.91406 17.4982V22.8513C6.91406 23.1713 7.1759 23.4332 7.49593 23.4332H10.7544C11.0744 23.4332 11.3362 23.1713 11.3362 22.8513V17.4982C11.3362 17.1782 11.0744 16.9163 10.7544 16.9163ZM10.1725 22.2695H8.07779V18.08H10.1725V22.2695Z" fill="#E2CD96"/>
<path d="M4.06197 15.6944H0.803542C0.483518 15.6944 0.22168 15.9562 0.22168 16.2763V22.8513C0.22168 23.1713 0.483518 23.4332 0.803542 23.4332H4.06197C4.38199 23.4332 4.64383 23.1713 4.64383 22.8513V16.2763C4.64383 15.9562 4.38199 15.6944 4.06197 15.6944ZM3.48011 22.2694H1.3854V16.8581H3.48011V22.2694Z" fill="#E2CD96"/>
</g>
<defs>
<clipPath id="clip0_548_534">
<rect width="25" height="25" fill="white"/>
</clipPath>
</defs>
</svg>
