<svg width="35" height="35" viewBox="0 0 35 35" fill="none" xmlns="http://www.w3.org/2000/svg">
<g clip-path="url(#clip0_548_591)">
<path d="M5.22148 30.9108H26.0159L25.0227 27.6952C25.17 27.8235 33.5423 35 33.5423 35V3.60937C33.4431 1.65812 31.7631 0 29.6806 0L5.22878 0.004375C3.14773 0.004375 1.45898 1.66542 1.45898 3.61667V27.3C1.45898 29.3577 3.14482 30.9108 5.22148 30.9108ZM20.604 8.28771L20.5559 8.30521L20.5734 8.28771H20.604ZM9.47544 10.1383C12.1486 8.19291 14.6263 8.28625 14.6263 8.28625L14.8261 8.48312C11.555 9.26333 10.0719 10.7246 10.0719 10.7246C10.2236 10.6925 16.8284 6.88187 24.8317 10.8208C24.8317 10.8208 23.3456 9.45437 20.2759 8.57937L20.5471 8.3125C20.9715 8.31396 23.2173 8.39271 25.6207 10.15C25.6207 10.15 28.3098 14.7437 28.3098 20.3875C28.2209 20.2796 26.6415 22.8171 22.5771 22.9046C22.5771 22.9046 21.8888 22.1258 21.3988 21.4462C23.7759 20.7637 24.6654 19.3987 24.6654 19.3987C20.0382 22.3125 15.9825 21.8575 11.1307 19.8887C11.0854 19.8887 11.065 19.8683 11.0417 19.845V19.8362C11.0184 19.8144 10.9979 19.7925 10.9527 19.7925H10.8652C10.5677 19.5971 10.3694 19.5008 10.3694 19.5008C10.3694 19.5008 11.2575 20.8658 13.5398 21.5483C12.9404 22.2323 12.3469 23.0096 12.3469 23.0096C8.28398 22.9133 6.80232 20.3758 6.80232 20.3758C6.80232 14.7233 9.47544 10.1383 9.47544 10.1383Z" fill="#E2CD96"/>
<path d="M20.8666 18.6244C21.9035 18.6244 22.7478 17.7494 22.7478 16.6702C22.7478 15.5983 21.9078 14.7233 20.8666 14.7233V14.7277C19.8341 14.7277 18.9883 15.5998 18.9854 16.6789C18.9854 17.7494 19.8297 18.6244 20.8666 18.6244Z" fill="#E2CD96"/>
<path d="M14.1322 18.6244C15.1691 18.6244 16.0135 17.7494 16.0135 16.6702C16.0135 15.5983 15.1749 14.7233 14.1381 14.7233L14.1322 14.7277C13.0953 14.7277 12.251 15.5998 12.251 16.6789C12.251 17.7494 13.0953 18.6244 14.1322 18.6244Z" fill="#E2CD96"/>
</g>
<defs>
<clipPath id="clip0_548_591">
<rect width="35" height="35" fill="white"/>
</clipPath>
</defs>
</svg>
