<svg width="35" height="35" viewBox="0 0 35 35" fill="none" xmlns="http://www.w3.org/2000/svg">
<g clip-path="url(#clip0_548_598)">
<path d="M33.068 6.18528e-08H1.93035C0.864105 0.000534119 -0.000266967 0.86544 6.18528e-08 1.93195V33.0696C0.000534119 34.1359 0.86544 35.0003 1.93195 35H33.068C34.1348 35.0003 34.9997 34.1356 35 33.0688C35 33.0686 35 33.0683 35 33.068V1.93035C34.9995 0.864105 34.1346 -0.000266967 33.068 6.18528e-08Z" fill="#E2CD96"/>
<path d="M24.165 35V21.4648H28.728L29.4116 16.167H24.165V12.7928C24.165 11.2625 24.5899 10.2197 26.7843 10.2197H29.5654V5.49411C29.0816 5.42976 27.4215 5.28583 25.4898 5.28583C21.4566 5.28583 18.6963 7.74676 18.6963 12.2681V16.167H14.1504V21.4648H18.6963V35H24.165Z" fill="#6C6C6C"/>
</g>
<defs>
<clipPath id="clip0_548_598">
<rect width="35" height="35" fill="white"/>
</clipPath>
</defs>
</svg>
