<svg width="25" height="25" viewBox="0 0 25 25" fill="none" xmlns="http://www.w3.org/2000/svg">
<g clip-path="url(#clip0_548_584)">
<path d="M21.3389 3.66119C18.9779 1.3002 15.8389 0 12.5 0C9.16117 0 6.02212 1.3002 3.66119 3.66119C1.3002 6.02212 0 9.16112 0 12.5C0 15.8389 1.3002 18.9779 3.66119 21.3389C6.02217 23.6998 9.16117 25 12.5 25C15.8389 25 18.9779 23.6998 21.3389 21.3389C23.6998 18.9779 25 15.8389 25 12.5C25 9.16117 23.6998 6.02212 21.3389 3.66119ZM12.5 23.5351C6.4152 23.5351 1.4649 18.5848 1.4649 12.5C1.4649 6.41525 6.4152 1.4649 12.5 1.4649C18.5848 1.4649 23.5351 6.4152 23.5351 12.5C23.5351 18.5848 18.5848 23.5351 12.5 23.5351Z" fill="#E2CD96"/>
<path d="M16.9112 19.9946V18.5297H14.9911V10.1781H8.19434V11.643H10.1145V18.5297H8.19434V19.9946H16.9112V19.9946ZM11.5794 18.5297V11.643H13.5262V18.5297H11.5794V18.5297Z" fill="#E2CD96"/>
<path d="M14.9909 4.11383H10.1143V8.99045H14.9909V4.11383ZM13.526 7.52549H11.5792V5.57869H13.526V7.52549Z" fill="#E2CD96"/>
</g>
<defs>
<clipPath id="clip0_548_584">
<rect width="25" height="25" fill="white"/>
</clipPath>
</defs>
</svg>
