<svg width="40" height="40" viewBox="0 0 40 40" fill="none" xmlns="http://www.w3.org/2000/svg">
<path d="M17.3584 18.6284C16.2184 16.2762 14.8422 13.8155 13.4187 10.8776C16.0241 10.8776 17.3152 10.8882 19.2588 10.875C24.4349 10.8396 27.9506 12.1738 30.1644 17.4905C30.3779 18.0037 30.6007 18.6215 30.6007 18.6215L39.9996 18.6139C38.2635 10.3917 31.6758 3.53919 24.4755 3.47685L0 3.44653L5.24572 13.6085C8.66445 19.3807 9.87661 18.6668 17.3584 18.6284Z" fill="#6C6C6C"/>
<path d="M30.1644 22.5402C27.9501 27.8565 24.4345 29.1916 19.2588 29.1557C17.3152 29.1425 16.0241 29.1536 13.4187 29.1536C14.8422 26.2152 16.2184 23.7541 17.3584 21.4028C9.87703 21.3639 8.66487 20.6496 5.24615 26.4223L0 36.5513L24.4755 36.5539C31.6754 36.4915 38.2635 29.6066 39.9991 21.3844L30.6007 21.4096C30.6012 21.4092 30.3779 22.027 30.1644 22.5402Z" fill="#6C6C6C"/>
</svg>
