<svg width="35" height="35" viewBox="0 0 35 35" fill="none" xmlns="http://www.w3.org/2000/svg">
<g clip-path="url(#clip0_548_596)">
<path d="M29.0427 18.9992C28.4769 18.2846 28.6388 17.9667 29.0427 17.3279C29.05 17.3206 33.721 10.866 34.2023 8.67707L34.2052 8.67562C34.4444 7.87791 34.2052 7.29166 33.0488 7.29166H29.2221C28.2479 7.29166 27.7987 7.79478 27.5581 8.3577C27.5581 8.3577 25.6098 13.0215 22.8535 16.0446C21.964 16.9181 21.5527 17.1981 21.0671 17.1981C20.8279 17.1981 20.456 16.9181 20.456 16.1204V8.67562C20.456 7.71895 20.1833 7.29166 19.3769 7.29166H13.3598C12.7488 7.29166 12.3856 7.73791 12.3856 8.15353C12.3856 9.06062 13.7638 9.26916 13.9067 11.8212V17.3585C13.9067 18.5719 13.6865 18.795 13.1979 18.795C11.8971 18.795 8.73979 14.1123 6.86875 8.75291C6.49104 7.71311 6.12208 7.29311 5.14063 7.29311H1.3125C0.220208 7.29311 0 7.79624 0 8.35916C0 9.35374 1.30083 14.299 6.04917 20.8323C9.21375 25.2919 13.6704 27.7083 17.7246 27.7083C20.1615 27.7083 20.459 27.1717 20.459 26.2485C20.459 21.9873 20.2388 21.5848 21.4594 21.5848C22.0252 21.5848 22.9994 21.8648 25.2744 24.0158C27.8746 26.5665 28.3019 27.7083 29.7573 27.7083H33.584C34.6748 27.7083 35.2275 27.1717 34.9096 26.1129C34.1819 23.886 29.2644 19.3054 29.0427 18.9992Z" fill="#E2CD96"/>
</g>
<defs>
<clipPath id="clip0_548_596">
<rect width="35" height="35" fill="white"/>
</clipPath>
</defs>
</svg>
