<svg width="35" height="35" viewBox="0 0 35 35" fill="none" xmlns="http://www.w3.org/2000/svg">
<g clip-path="url(#clip0_548_601)">
<path d="M34.2789 9.09825C33.8754 7.59889 32.6933 6.41702 31.1942 6.01328C28.4553 5.26373 17.4997 5.26373 17.4997 5.26373C17.4997 5.26373 6.54431 5.26373 3.80541 5.98471C2.33516 6.38819 1.12419 7.59916 0.720708 9.09825C0 11.8369 0 17.5166 0 17.5166C0 17.5166 0 23.2248 0.720708 25.9349C1.12445 27.434 2.30632 28.6161 3.80568 29.0198C6.57315 29.7694 17.4999 29.7694 17.4999 29.7694C17.4999 29.7694 28.4553 29.7694 31.1942 29.0484C32.6935 28.6449 33.8754 27.4628 34.2791 25.9637C34.9999 23.2248 34.9999 17.5454 34.9999 17.5454C34.9999 17.5454 35.0287 11.8369 34.2789 9.09825Z" fill="#E2CD96"/>
<path d="M14.0117 22.7637L23.1219 17.5166L14.0117 12.2695V22.7637Z" fill="#6C6C6C"/>
</g>
<defs>
<clipPath id="clip0_548_601">
<rect width="35" height="35" fill="white"/>
</clipPath>
</defs>
</svg>
