<?xml version="1.0" encoding="iso-8859-1"?>
<!-- Generator: Adobe Illustrator 19.0.0, SVG Export Plug-In . SVG Version: 6.00 Build 0)  -->
<svg version="1.1" id="Capa_1" xmlns="http://www.w3.org/2000/svg" xmlns:xlink="http://www.w3.org/1999/xlink" x="0px" y="0px"
	 viewBox="0 0 511.994 511.994" style="enable-background:new 0 0 511.994 511.994;" xml:space="preserve">
<g>
	<path style="fill:#FADC60;" d="M470.116,428.348c-13.084,21.813-41.475,28.914-63.287,15.831
		c-21.812-13.083-28.913-41.474-15.83-63.287l-19.67-11.799c-19.59,32.659-8.957,75.166,23.7,94.756
		c32.658,19.59,75.166,8.957,94.756-23.702L470.116,428.348z"/>
	<path style="fill:#FADC60;" d="M41.878,428.348c13.084,21.813,41.475,28.914,63.287,15.831
		c21.812-13.083,28.913-41.474,15.83-63.287l19.67-11.799c19.59,32.659,8.957,75.166-23.7,94.756
		c-32.658,19.59-75.166,8.957-94.756-23.702L41.878,428.348z"/>
</g>
<g>
	<path style="fill:#FD6F71;" d="M411.031,354.331c46.156,6.288,84.45,50.656,84.45,50.656l-19.508,32.521
		c0,0-57.172-12.896-84.45-50.656l-7.818-26.801L411.031,354.331z"/>
	<path style="fill:#FD6F71;" d="M100.963,354.331c-46.156,6.288-84.45,50.656-84.45,50.656l19.508,32.521
		c0,0,57.172-12.896,84.45-50.656l7.818-26.801L100.963,354.331z"/>
</g>
<path style="fill:#B8B8B8;" d="M447.11,44.052c0.906-4.239-3.893-7.357-7.404-4.813c-17.552,12.718-58.066,37.737-120.049,51.006
	c-6.608,1.414-11.941,6.274-13.875,12.75c-10.995,36.814-55.322,160.914-169.676,230.257l-7.818,26.801l27.326,5.721
	C335.383,279.134,413.502,201.344,447.11,44.052z"/>
<path style="fill:#D2D2D2;" d="M64.884,44.052c-0.906-4.239,3.893-7.357,7.404-4.813c17.552,12.718,58.066,37.737,120.049,51.006
	c6.608,1.414,11.941,6.274,13.876,12.75c10.995,36.814,55.322,160.914,169.676,230.257l7.818,26.801l-27.326,5.721
	C176.611,279.134,98.491,201.344,64.884,44.052z"/>
<path style="fill:#B8B8B8;" d="M356.38,365.773l27.326-5.721l-7.818-26.801c-8.983-5.448-17.533-11.233-25.669-17.287
	l-21.629,36.058C337.577,356.59,346.827,361.168,356.38,365.773z"/>
<path style="fill:#E34B4C;" d="M411.031,354.331l-27.326,5.721l7.818,26.801c5.195,7.192,11.477,13.479,18.24,18.95
	c1.372-1.824,2.66-3.724,3.846-5.702l19.508-32.521c1.193-1.989,2.268-4.016,3.232-6.073
	C428.335,358.113,419.827,355.531,411.031,354.331z"/>
<g>
	<path style="fill:#F2C42C;" d="M396.968,298.107L396.968,298.107c19.41,11.642,25.706,36.815,14.063,56.224l-19.508,32.521
		c-11.642,19.41-36.815,25.706-56.224,14.063l0,0L396.968,298.107z"/>
	<circle style="fill:#F2C42C;" cx="486.253" cy="421.567" r="25.741"/>
</g>
<path style="fill:#9E9E9E;" d="M161.776,315.963c-8.136,6.054-16.686,11.84-25.669,17.287l-7.818,26.801l27.326,5.721
	c9.554-4.605,18.803-9.183,27.791-13.751L161.776,315.963z"/>
<path style="fill:#E34B4C;" d="M75.645,361.507c0.963,2.056,2.039,4.084,3.232,6.073L98.384,400.1
	c1.186,1.977,2.473,3.878,3.846,5.702c6.763-5.47,13.044-11.759,18.239-18.95l7.818-26.801l-27.326-5.721
	C92.167,355.531,83.659,358.113,75.645,361.507z"/>
<g>
	<path style="fill:#F2C42C;" d="M115.026,298.107L115.026,298.107c-19.41,11.642-25.706,36.815-14.063,56.224l19.508,32.521
		c11.642,19.41,36.815,25.706,56.224,14.063l0,0L115.026,298.107z"/>
	<circle style="fill:#F2C42C;" cx="25.741" cy="421.567" r="25.741"/>
</g>
<g>
</g>
<g>
</g>
<g>
</g>
<g>
</g>
<g>
</g>
<g>
</g>
<g>
</g>
<g>
</g>
<g>
</g>
<g>
</g>
<g>
</g>
<g>
</g>
<g>
</g>
<g>
</g>
<g>
</g>
</svg>
