<svg xmlns="http://www.w3.org/2000/svg" width="44" height="49.999" viewBox="0 0 44 49.999"><g transform="translate(0)"><path d="M904,629.059h0m-23.742,41.934c-6.33-4.53-14.688-13.181-16.9-18.7l-1.084-17.367L862,629.794l20-4.74,20,4.741-.27,5.133-1.084,17.366h0c-2.215,5.519-10.574,14.17-16.9,18.7h-3.484M882,623a.982.982,0,0,0-.3.048l-21,5.056a1,1,0,0,0-.7.955q.189,4.655.206,4.929l1.16,18.588a1,1,0,0,0,.065.3c2.32,6.011,11.146,15.163,17.932,19.94a1,1,0,0,0,.576.183h4.121a.967.967,0,0,0,.575-.183c6.786-4.778,15.611-13.93,17.932-19.94a.968.968,0,0,0,.065-.3l1.16-18.588q.018-.275.208-4.929a1,1,0,0,0-.7-.955l-21-5.056A.991.991,0,0,0,882,623" transform="translate(-860 -623)" fill="#eebb67" fill-rule="evenodd" opacity="0.5"/><path d="M893,642a3,3,0,0,0-3-3h-4v-3a3,3,0,0,0-3-3h-3a1,1,0,0,0-1,1v7.465l-1,.667V641a1,1,0,0,0-1-1h-5a1,1,0,0,0-1,1v14a1,1,0,0,0,1,1h3a3,3,0,0,0,3-3v-8.465l2.555-1.7A1,1,0,0,0,881,642v-7h2a1,1,0,0,1,1,1v4a1,1,0,0,0,1,1h5a1,1,0,0,1,1,1v1a1,1,0,0,1-1,1h-2a1,1,0,0,0,0,2h2a1,1,0,0,1,1,1v1a1,1,0,0,1-1,1h-2a1,1,0,1,0,0,2h1a1,1,0,0,1,1,1v1a1,1,0,0,1-1,1h-7a1,1,0,0,0,0,2h7a3,3,0,0,0,3-3v-1a1.54,1.54,0,0,1,.625-2.555A2.948,2.948,0,0,0,893,648v-1a2.887,2.887,0,0,0-.78-2,2.976,2.976,0,0,0,.78-2Zm-17,11a1,1,0,0,1-1,1h-2V642h3Z" transform="translate(-860 -623)" fill="#eebb67" fill-rule="evenodd"/></g></svg>