<svg xmlns="http://www.w3.org/2000/svg" width="44" height="49.999" viewBox="0 0 44 49.999"><g transform="translate(0)"><path d="M904,629.059h0m-23.742,41.934c-6.33-4.53-14.688-13.181-16.9-18.7l-1.084-17.367L862,629.794l20-4.74,20,4.741-.27,5.133-1.084,17.366h0c-2.215,5.519-10.574,14.17-16.9,18.7h-3.484M882,623a.982.982,0,0,0-.3.048l-21,5.056a1,1,0,0,0-.7.955q.189,4.655.206,4.929l1.16,18.588a1,1,0,0,0,.065.3c2.32,6.011,11.146,15.163,17.932,19.94a1,1,0,0,0,.576.183h4.121a.967.967,0,0,0,.575-.183c6.786-4.778,15.611-13.93,17.932-19.94a.968.968,0,0,0,.065-.3l1.16-18.588q.018-.275.208-4.929a1,1,0,0,0-.7-.955l-21-5.056A.991.991,0,0,0,882,623" transform="translate(-860 -623)" fill="#eebb67" fill-rule="evenodd" opacity="0.5"/><path d="M11.065-24.572-2.6-10.9l-5.119-5.062,1.744-1.687L-2.6-14.278,9.378-26.259ZM8.422-18.553q.112.506.2,1.041a7.023,7.023,0,0,1,.084,1.1A9.2,9.2,0,0,1,7.944-12.7,9.862,9.862,0,0,1,5.862-9.638,9.862,9.862,0,0,1,2.8-7.556,9.2,9.2,0,0,1-.916-6.8a9.2,9.2,0,0,1-3.712-.759A9.861,9.861,0,0,1-7.693-9.638,9.862,9.862,0,0,1-9.775-12.7a9.2,9.2,0,0,1-.759-3.712,9.2,9.2,0,0,1,.759-3.712,9.861,9.861,0,0,1,2.081-3.066,9.861,9.861,0,0,1,3.066-2.081,9.2,9.2,0,0,1,3.712-.759,9.221,9.221,0,0,1,2.7.394A9.48,9.48,0,0,1,4.2-24.515l1.744-1.744a12.151,12.151,0,0,0-3.206-1.575A11.835,11.835,0,0,0-.916-28.4a11.655,11.655,0,0,0-4.641.928,12.1,12.1,0,0,0-3.825,2.587,12.1,12.1,0,0,0-2.587,3.825,11.655,11.655,0,0,0-.928,4.641,11.655,11.655,0,0,0,.928,4.641A12.1,12.1,0,0,0-9.381-7.95,12.1,12.1,0,0,0-5.556-5.363a11.655,11.655,0,0,0,4.641.928,11.655,11.655,0,0,0,4.641-.928A12.1,12.1,0,0,0,7.55-7.95a12.1,12.1,0,0,0,2.587-3.825,11.655,11.655,0,0,0,.928-4.641A12.64,12.64,0,0,0,10.9-18.5a11.666,11.666,0,0,0-.506-1.969Z" transform="translate(22.915 38.949)" fill="#eebb67"/></g></svg>