<svg xmlns="http://www.w3.org/2000/svg" width="16.854" height="150" viewBox="0 0 16.854 150"><rect width="1" height="150" transform="translate(15.854)" fill="#dbbf89"/><g transform="translate(4.44 63.461)"><path d="M.23,10.7l.128.651L0,11.707l.534.534.173.88L12.414,1.414,11,0Z" transform="translate(12.414 13.121) rotate(180)" fill="#dbbf89"/><path d="M.473.94,0,1.414.284,1.7l-.129.518L11,13.121l1.414-1.414L.706,0Z" transform="translate(12.414 23.468) rotate(180)" fill="#dbbf89"/></g><g transform="translate(0 59.172)"><path d="M.354,16.354l16-16-.707-.707-16,16Z" transform="translate(0.354 0.354)" fill="#dbbf89"/><path d="M15.646,16.354l.707-.707-16-16L-.354.354Z" transform="translate(0.354 15.68)" fill="#dbbf89"/></g></svg>