<svg xmlns="http://www.w3.org/2000/svg" width="38.171" height="44.6" viewBox="0 0 38.171 44.6"><g transform="translate(5 1.568)"><path d="M31.746,1.789H28.424V-.393a1.175,1.175,0,0,0-1.175-1.175A1.175,1.175,0,0,0,26.073-.393V1.789H1.849V-.393A1.175,1.175,0,0,0,.673-1.568,1.175,1.175,0,0,0-.5-.393V1.789H-3.825A1.175,1.175,0,0,0-5,2.964V35.851a1.175,1.175,0,0,0,1.175,1.175h35.57a1.175,1.175,0,0,0,1.175-1.175V2.964A1.175,1.175,0,0,0,31.746,1.789ZM30.57,4.14V6.752H-2.649V4.14ZM-2.649,34.675V9.1H30.57V34.676H-2.649Z" transform="translate(0)" fill="#eebb67"/><path d="M71.114,100.427l-6.591,6.591-1.794-1.794a1.176,1.176,0,1,0-1.662,1.663l2.625,2.625a1.175,1.175,0,0,0,1.662,0l7.423-7.423a1.176,1.176,0,0,0-1.662-1.663Z" transform="translate(-52.961 -83.412)" fill="#eebb67" opacity="0.5"/><path d="M0,0H38V2H0Z" transform="translate(-4.829 41.032)" fill="#eebb67" opacity="0.5"/></g></svg>