<svg xmlns="http://www.w3.org/2000/svg" width="16.854" height="150" viewBox="0 0 16.854 150"><g transform="translate(-1830 -403)"><rect width="1" height="150" transform="translate(1830 403)" fill="#dbbf89"/><g transform="translate(1830 466.461)"><path d="M.23,2.424l.128-.651L0,1.414.534.88.706,0,12.414,11.707,11,13.121Z" transform="translate(0)" fill="#dbbf89"/><path d="M.473,12.181,0,11.707l.284-.284L.156,10.9,11,0l1.414,1.414L.706,13.121Z" transform="translate(0 10.346)" fill="#dbbf89"/></g><g transform="translate(1830.146 462.172)"><path d="M15.646,16.354l-16-16L.354-.354l16,16Z" transform="translate(0.354 0.354)" fill="#dbbf89"/><path d="M.354,16.354l-.707-.707,16-16,.707.707Z" transform="translate(0.354 15.68)" fill="#dbbf89"/></g></g></svg>