<svg xmlns="http://www.w3.org/2000/svg" width="18.984" height="18" viewBox="0 0 18.984 18"><path d="M3-5.484A6.229,6.229,0,0,0,7.219-7.078L9-5.3A8.631,8.631,0,0,1,3-3,8.668,8.668,0,0,1-2.227-4.687,8.962,8.962,0,0,1-5.484-9h-4.5L-9-11.016h3.047A6.94,6.94,0,0,1-6-12a6.941,6.941,0,0,1,.047-.984H-9.984L-9-15h3.516a8.962,8.962,0,0,1,3.258-4.312A8.668,8.668,0,0,1,3-21a9.074,9.074,0,0,1,3.188.68A8.829,8.829,0,0,1,9-18.7L7.219-16.922A6.229,6.229,0,0,0,3-18.516,6.356,6.356,0,0,0-.328-17.484,6.384,6.384,0,0,0-2.766-15h6.75L3-12.984H-3.422A7.639,7.639,0,0,0-3.516-12a7.64,7.64,0,0,0,.094.984H3.984L3-9H-2.766A6.384,6.384,0,0,0-.328-6.516,6.356,6.356,0,0,0,3-5.484Z" transform="translate(9.984 21)" fill="#DBBF89"/></svg>