<svg xmlns="http://www.w3.org/2000/svg" xmlns:xlink="http://www.w3.org/1999/xlink" width="42" height="42" viewBox="0 0 42 42"><defs><clipPath id="a"><rect width="42" height="42" transform="translate(914 325)" fill="#fbf9f5" stroke="#707070" stroke-width="1" opacity="0.47"/></clipPath></defs><g transform="translate(-914 -325)" clip-path="url(#a)"><g transform="translate(920.778 330.787)"><g transform="translate(1.222 2.213)"><path d="M25.779,22.686a1.089,1.089,0,0,0-1.542,0h0l-3.115-3.115a7.526,7.526,0,0,0,1.888-3.72,1.091,1.091,0,1,0-2.172-.213,2.137,2.137,0,0,1-.107.456l-3.05-3.049,6.556-6.556a1.1,1.1,0,0,0,.263-.426l1.542-4.627a1.09,1.09,0,0,0-1.38-1.38L20.036,1.6a1.091,1.091,0,0,0-.426.264L13.053,8.418,6.5,1.862A1.077,1.077,0,0,0,6.072,1.6L1.445.056a1.091,1.091,0,0,0-1.38,1.38L1.607,6.063a1.091,1.091,0,0,0,.264.426l6.555,6.555L5.364,16.108a1.875,1.875,0,0,1-.091-.43A1.091,1.091,0,1,0,3.1,15.81a7.16,7.16,0,0,0,1.885,3.765l-3.11,3.111A1.091,1.091,0,0,0,.329,24.228L1.871,25.77a1.091,1.091,0,0,0,1.542-1.542l3.114-3.115A7.514,7.514,0,0,0,10.249,23a.9.9,0,0,0,.107.005,1.091,1.091,0,0,0,.1-2.176A2.143,2.143,0,0,1,10,20.721l3.05-3.049,3.063,3.063a1.875,1.875,0,0,1-.43.091A1.091,1.091,0,0,0,15.751,23c.023,0,.045,0,.068,0a7.157,7.157,0,0,0,3.764-1.885l3.111,3.111a1.091,1.091,0,0,0,1.543,1.542l1.542-1.542A1.091,1.091,0,0,0,25.779,22.686Zm-17.7-3.128a11.17,11.17,0,0,1-.841-.756l-.023-.024c-.241-.242-.472-.5-.686-.756l3.436-3.435,1.543,1.542Zm7.171-8.939L14.6,9.96l6.373-6.373,2.314-.771-.772,2.313L16.139,11.5Z" transform="translate(-0.009 0)" fill="#fff"/></g></g></g></svg>