<svg xmlns="http://www.w3.org/2000/svg" xmlns:xlink="http://www.w3.org/1999/xlink" width="42" height="42" viewBox="0 0 42 42"><defs><clipPath id="a"><rect width="42" height="42" transform="translate(914 325)" fill="#fbf9f5" stroke="#707070" stroke-width="1"/></clipPath></defs><g transform="translate(-914 -325)" clip-path="url(#a)"><path d="M13.111,15.029V27.473H0l.958-1.206A9.417,9.417,0,0,0,3,20.412L2.694,15.4a39.865,39.865,0,0,0,8.878-8.34l1.761-2.255.878,1.277A39.839,39.839,0,0,0,24,16.013l.335.238-.614,3.686a9.412,9.412,0,0,0,2.305,6.011l1.42,1.636H18.667l3-3.222-.178-.119a23.667,23.667,0,0,1-6.414-6.34Zm1.111,3.666.771,3.725a7.341,7.341,0,0,0,2.785,4.386l2.555-2.333L18.39,23.294a7.358,7.358,0,0,1-2-1.792ZM13.409,3.813a3.38,3.38,0,0,1,4.432,1.669,3.815,3.815,0,0,0,1.881.324,12.09,12.09,0,0,0,1.722-.555l-1.3-.613a1.686,1.686,0,0,1-.837-.875l-.7-1.685A3.382,3.382,0,0,0,15.441,0l-2.33.028.25,3.805Z" transform="translate(921.278 331.208)" fill="#fff"/></g></svg>