<svg xmlns="http://www.w3.org/2000/svg" xmlns:xlink="http://www.w3.org/1999/xlink" width="43" height="42" viewBox="0 0 43 42"><defs><clipPath id="a"><rect width="43" height="42" transform="translate(914 325)" fill="#fbf9f5" stroke="#707070" stroke-width="1" opacity="0.47"/></clipPath></defs><g transform="translate(-914 -325)" clip-path="url(#a)"><path d="M19.227,5a14.356,14.356,0,0,0-3.872.54l1.864,4.74a9,9,0,0,1,4.016,0L23.1,5.54A14.406,14.406,0,0,0,19.227,5ZM12.942,6.456a14.3,14.3,0,0,0-4.949,3.96l4.378,2.721c.124-.14.257-.272.389-.4v.012a.523.523,0,0,1,.169-.165h-.023a9.044,9.044,0,0,1,1.9-1.394Zm12.57,0L23.65,11.188a9.068,9.068,0,0,1,1.885,1.392h-.01a.523.523,0,0,1,.169.165v-.02a8.977,8.977,0,0,1,.614.676l4.481-2.554A14.274,14.274,0,0,0,25.512,6.456ZM6.6,12.543A13.512,13.512,0,0,0,5,18.9h5.173a8.617,8.617,0,0,1,.806-3.627Zm12.63.037a6.235,6.235,0,0,0-1.293.126v17.56H20.52V12.705A6.235,6.235,0,0,0,19.227,12.58Zm12.868.447L27.613,15.58A8.632,8.632,0,0,1,28.28,18.9h5.173A13.48,13.48,0,0,0,32.095,13.026Zm-16.748.817A6.281,6.281,0,0,0,12.76,18.9V30.265h2.587Zm7.76,0V30.265h2.587V18.9A6.281,6.281,0,0,0,23.107,13.843ZM5,21.423v5.053h5.173V21.423Zm23.28,0v5.053h5.173V21.423ZM5,29v3.79h5.173V29Zm23.28,0v3.79h5.173V29Z" transform="translate(916.273 327.104)" fill="#fff"/></g></svg>