<svg xmlns="http://www.w3.org/2000/svg" xmlns:xlink="http://www.w3.org/1999/xlink" width="42" height="42" viewBox="0 0 42 42"><defs><clipPath id="a"><rect width="42" height="42" transform="translate(914 325)" fill="#fbf9f5" stroke="#707070" stroke-width="1"/></clipPath></defs><g transform="translate(-914 -325)" clip-path="url(#a)"><g transform="translate(913.828 326.149)"><g transform="translate(33.015 8.077)"><g transform="translate(-4.1 -3)"><path d="M99.663,330.908a.844.844,0,1,0,0-1.688H97.356v-.956a.844.844,0,0,0-1.688,0v.956h-.731a1.971,1.971,0,0,0-1.969,1.969v1.8a1.971,1.971,0,0,0,1.969,1.969h.731v2.363H93.362a.844.844,0,0,0,0,1.688h2.307v.956a.844.844,0,1,0,1.688,0v-.956h.731a1.971,1.971,0,0,0,1.969-1.969v-1.8a1.971,1.971,0,0,0-1.969-1.969h-.731v-2.363Zm-3.994,2.363h-.731a.282.282,0,0,1-.281-.281v-1.8a.282.282,0,0,1,.281-.281h.731Zm2.419,1.688a.282.282,0,0,1,.281.281v1.8a.282.282,0,0,1-.281.281h-.731v-2.363h.731Z" transform="translate(-92.518 -327.42)" fill="#fff"/></g></g><g transform="translate(15.767 29)"><path d="M307.049,393.534a2.882,2.882,0,0,1-1.865-1.046,2.83,2.83,0,0,1-.58-1.511.516.516,0,0,0-1.03,0,2.829,2.829,0,0,1-.58,1.511,2.882,2.882,0,0,1-1.865,1.046.516.516,0,0,0,0,1.024,2.881,2.881,0,0,1,1.865,1.046,2.829,2.829,0,0,1,.58,1.511.516.516,0,0,0,1.03,0,2.829,2.829,0,0,1,.58-1.511,2.882,2.882,0,0,1,1.865-1.046.516.516,0,0,0,0-1.024Zm-2.677,1.433a3.749,3.749,0,0,0-.282.414,3.773,3.773,0,0,0-.282-.414,3.721,3.721,0,0,0-1.058-.921,3.72,3.72,0,0,0,1.058-.921h0a3.764,3.764,0,0,0,.282-.414,3.736,3.736,0,0,0,1.34,1.334A3.72,3.72,0,0,0,304.371,394.966Z" transform="translate(-300.681 -390.5)" fill="#fff"/></g><g transform="translate(5.44 5.077)"><g transform="translate(9.554 0)"><path d="M128.172,1.966,129.964.175a.6.6,0,0,1,.844,0l5.971,5.971a.6.6,0,0,1,0,.844l-1.791,1.791a.6.6,0,0,1-.844,0l-5.971-5.971A.6.6,0,0,1,128.172,1.966Z" transform="translate(-127.997 0)" fill="#fff"/></g><g transform="translate(12.54 12.54)"><path d="M111.106,183.555l4.18-4.18a.6.6,0,0,1,.844,0l1.791,1.791a.6.6,0,0,1,0,.844l-4.18,4.18a.6.6,0,0,1-.844,0l-1.791-1.791A.6.6,0,0,1,111.106,183.555Z" transform="translate(-110.931 -179.2)" fill="#fff"/></g><g transform="translate(16.967 16.967)"><path d="M.178,245.03l2.389-2.389a.6.6,0,0,1,.844,0l6.918,6.918a.6.6,0,0,1,0,.844l-2.389,2.389a.6.6,0,0,1-.844,0L.178,245.874A.6.6,0,0,1,.178,245.03Z" transform="translate(-0.003 -242.466)" fill="#fff"/></g><g transform="translate(4.777 4.778)"><path d="M173.637,72.73l4.283-4.283a.6.6,0,0,1,.844,0l3.583,3.583a.6.6,0,0,1,0,.844l-.525.525,2.018,2.018a.6.6,0,0,1,0,.844l-2.389,2.389a.6.6,0,0,1-.844,0l-2.018-2.018-.525.525a.6.6,0,0,1-.844,0l-3.583-3.583A.6.6,0,0,1,173.637,72.73Z" transform="translate(-173.462 -68.273)" fill="#fff"/></g><g transform="translate(0 9.554)"><path d="M264.705,138.5l1.791-1.791a.6.6,0,0,1,.844,0l5.971,5.971a.6.6,0,0,1,0,.844l-1.791,1.791a.6.6,0,0,1-.844,0l-5.971-5.971A.6.6,0,0,1,264.705,138.5Z" transform="translate(-264.53 -136.533)" fill="#fff"/></g></g></g></g></svg>