<svg xmlns="http://www.w3.org/2000/svg" width="79.867" height="79.867" viewBox="0 0 79.867 79.867">
  <path id="frame" data-name="Path 253" d="M831.933,540a39.933,39.933,0,1,0,39.933,39.933A39.933,39.933,0,0,0,831.933,540Zm0,74.608a34.675,34.675,0,1,1,34.675-34.675A34.714,34.714,0,0,1,831.933,614.608Zm18.5-16.468a18.439,18.439,0,0,1-8.122,10.05l-.566.334V570.26l3.8-4.385-3.81,1.473c-.034-.733-.146-1.488-.485-1.738l-.574-.424,9.076-5.678v29.57A26.652,26.652,0,0,1,847.61,599.5l3.551-3.551ZM830.26,578.927l11.021,6.885-1.929.147a1.409,1.409,0,0,0-1.3,1.4v23.635h-.548a22.99,22.99,0,0,1-14.353-5.018,28.666,28.666,0,0,1-5.086-4.588l-4.757-5.437,3.224,1.622a22.962,22.962,0,0,1-2.137-9.688V562.436l3.527-2.585-3.69.081q-.055-.256-.128-.508l-.853-2.934-.1-.36h0l-1.25-4.3.87.281c1.541.5,3.032.921,4.5,1.277.474.115.946.22,1.417.321l.271.057c.479.1.957.194,1.436.28.549.1,1.1.185,1.652.265l.149.022q.846.119,1.7.213a59.424,59.424,0,0,0,6.432.331l8.522-.212-.252.673a22.964,22.964,0,0,0-1.417,8.2l.021.425-5.75,1.048.093-1.969a2.793,2.793,0,0,0-2.792-2.863h-6.5v2.671H822.2v7.122h8.688a13.293,13.293,0,0,0,2.415-.222l4.141-.767-.012,9.129-4.362-2.626a6.572,6.572,0,0,0-3.388-.941h-6.343l-1.091-2.641v2.641H822.2v13.336a15.417,15.417,0,0,0,8.064,13.486Zm21.792,9.1a21.616,21.616,0,0,0,0-16.194v-9.327a26.6,26.6,0,0,1,1.382,33.117,2.3,2.3,0,0,0-1.764-1.921,28.513,28.513,0,0,0,.382-4.627ZM812.1,571.165a21.616,21.616,0,0,0,.015,17.57,25.157,25.157,0,0,0,.66,4.978,2.3,2.3,0,0,0-1.281.828l-.419,1.924a26.6,26.6,0,0,1,1.042-34.306,2.323,2.323,0,0,0-.018.276Zm35.062-17.454h0c1.065-.374,2.051-.756,2.631-.992l.828-.336-.481,2.5a7.442,7.442,0,0,1-.191.762c-.052.171-.11.339-.173.5-.028.072-.057.143-.087.214q-.077.181-.162.357c-.036.074-.07.148-.108.22-.087.165-.178.326-.277.482a6.539,6.539,0,0,1-1.884,1.955l-6.249,4.171.046-.961a26.145,26.145,0,0,1,1.319-7.459l.125-.325.348.013a6.607,6.607,0,0,0,1.7-.284c.6-.157,1.268-.364,1.935-.588l.029-.01C846.724,553.863,846.944,553.787,847.161,553.711Zm-25.384,54.107q.833.659,1.706,1.24a30.323,30.323,0,0,1-12.248-51.278l.627,2.155a28.312,28.312,0,0,0,6.013,44.6A30.682,30.682,0,0,0,821.777,607.818Zm3.546-55.446c-1.567-.134-3.1-.333-4.62-.609a30.4,30.4,0,0,1,23.562.465,7.094,7.094,0,0,1-1.337.292l-.342-.013-.091,0a2.3,2.3,0,0,0-1.511.571c-.25-.085-.5-.171-.753-.249-.554-.17-1.116-.318-1.684-.455a28.185,28.185,0,0,0-13.224,0Zm36.93,27.562a30.277,30.277,0,0,1-12.53,24.552,20.718,20.718,0,0,0,2.645-4.936,28.282,28.282,0,0,0-.317-39.564v-.476a2.3,2.3,0,0,0-.579-1.527,9.635,9.635,0,0,0,.4-.888A30.248,30.248,0,0,1,862.253,579.933Z" transform="translate(-792 -540)" />
</svg>
