<svg xmlns="http://www.w3.org/2000/svg" xmlns:xlink="http://www.w3.org/1999/xlink" width="42" height="42" viewBox="0 0 42 42"><defs><clipPath id="a"><rect width="42" height="42" transform="translate(914 325)" fill="#fbf9f5" stroke="#707070" stroke-width="1"/></clipPath></defs><g transform="translate(-914 -325)" clip-path="url(#a)"><path d="M35.426,15.525s-2.411,3.937-2.411,5.268a2.508,2.508,0,0,0,.872,2,2.405,2.405,0,0,0,3.949-2C37.836,19.462,35.426,15.525,35.426,15.525Zm-3.544,4.516A7.11,7.11,0,0,0,28.2,23.733c-1.263,2.569-1.744,6.207-1.79,10.277h4.394a18.7,18.7,0,0,0-.285,3.361,40.257,40.257,0,0,0,.627,5.359,44.616,44.616,0,0,0,2.505-4.647c.431,1.683,1.6,4.815,1.6,4.815s1.157-3.1,1.594-4.79a45.505,45.505,0,0,0,2.5,4.622,38.489,38.489,0,0,0,.621-5.4,18.613,18.613,0,0,0-.285-3.32h4.358c-.046-4.07-.527-7.708-1.79-10.277a7.277,7.277,0,0,0-3.229-3.486,3.671,3.671,0,1,1-7.136-.206Zm-3.358.346c-.079,0-.158,0-.237,0a10.019,10.019,0,0,0-9.1,12.959c.866,2.879,5.107,4.727,7.31,3.521-4.151.007-5.384-4.5-4.1-7.63a4.562,4.562,0,0,1,3.557-3.088,15.438,15.438,0,0,1,1.077-2.994,9.425,9.425,0,0,1,2-2.748Q28.773,20.39,28.524,20.387Zm13.551,0q-.317,0-.637.031a9.429,9.429,0,0,1,1.985,2.737,15.413,15.413,0,0,1,1.072,2.974,4.536,4.536,0,0,1,3.713,3.108c1.284,3.128.05,7.637-4.1,7.63,2.2,1.206,6.444-.642,7.31-3.521a10.019,10.019,0,0,0-9.1-12.959q-.118,0-.237,0Zm-1.818,5.668a2.12,2.12,0,1,1-2.863,2.259,4.169,4.169,0,0,0,2.863-2.259Zm-10.065,0a4.17,4.17,0,0,0,2.864,2.259,2.12,2.12,0,1,1-2.864-2.259ZM37.8,31.279,35.224,36.61l-2.573-5.331,2.573,1.763Z" transform="translate(899.7 316.789)" fill="#fff"/></g></svg>