<svg xmlns="http://www.w3.org/2000/svg" width="259.967" height="194.365" viewBox="0 0 259.967 194.365"><g transform="translate(-19.5 49.492)"><g transform="translate(19.5 -49.492)"><path d="M354.841,81.886c-11.175.921-44.749,3.606-97.306,3.606-51.08,0-87.546-1.917-100.353-2.7,0,0,18.709,17.629,12.473,40.846a16.616,16.616,0,0,0,8.549,1.689c15.881-1.063,41.989-2.254,79.239-2.254,35.548,0,59.691,1.085,74.554,2.108,4.751.327,6.982.064,10.128-2.793C338.035,100.418,354.841,81.886,354.841,81.886Zm-158.163,29.48a19.048,19.048,0,0,0-.585,3.086,5.22,5.22,0,0,0-2.033-.689,17.792,17.792,0,0,0-1.978-.115H180.665v-.631a5.028,5.028,0,0,0,1-.1,2.48,2.48,0,0,0,.891-.358,2.05,2.05,0,0,0,.64-.689,2.145,2.145,0,0,0,.251-1.091V97.512a2.4,2.4,0,0,0-.251-1.135,2.358,2.358,0,0,0-.64-.775,2.446,2.446,0,0,0-.891-.431,4.017,4.017,0,0,0-1-.129v-.4h15.095a16.883,16.883,0,0,0,.236,2.44,6.571,6.571,0,0,0,1.1,2.556l-.028.258a6.121,6.121,0,0,1-1.546-.531,6.032,6.032,0,0,1-1.128-.761,9.382,9.382,0,0,1-.919-.9q-.418-.474-.863-.991a5.93,5.93,0,0,0-1-.875,2.183,2.183,0,0,0-1.281-.388h-1.671a1.409,1.409,0,0,0-.571.129,1.807,1.807,0,0,0-.529.359,1.855,1.855,0,0,0-.389.56,1.714,1.714,0,0,0-.154.732v5.8h3.816a2.081,2.081,0,0,0,1.239-.23,8.538,8.538,0,0,0,.961-.66q.473-.373,1.044-.747a3.773,3.773,0,0,1,1.49-.516,7.216,7.216,0,0,0-.459,2.555,7.546,7.546,0,0,0,.459,2.7,1.762,1.762,0,0,1-1.1-.3q-.6-.36-1.226-.818T192,104.159a2.2,2.2,0,0,0-1.17-.388h-3.816v7.666a1.26,1.26,0,0,0,.182.689,1.635,1.635,0,0,0,.446.473,1.879,1.879,0,0,0,.543.273,1.644,1.644,0,0,0,.473.087h2.172a1.752,1.752,0,0,0,.96-.373,6.681,6.681,0,0,0,.92-.847q.459-.5.96-1.077a8.533,8.533,0,0,1,1.114-1.062,6.035,6.035,0,0,1,1.379-.819,4.374,4.374,0,0,1,1.741-.33A12.577,12.577,0,0,0,196.678,111.365Zm22.4-.56a5.222,5.222,0,0,1-1.253,1.794,5.492,5.492,0,0,1-1.838,1.12,6.308,6.308,0,0,1-2.214.388,6.4,6.4,0,0,1-1.629-.2q-.766-.2-1.462-.459t-1.365-.459a4.723,4.723,0,0,0-1.364-.2,3.4,3.4,0,0,0-1.254.219,2.752,2.752,0,0,0-1.03.745q.028-.864.028-1.713a14.991,14.991,0,0,0-.1-1.7,9.709,9.709,0,0,0-.349-1.684,7.669,7.669,0,0,0-.7-1.612,3.467,3.467,0,0,1,1.366.26,4.987,4.987,0,0,1,1.159.692,7.183,7.183,0,0,1,1.019,1q.475.562.922,1.168.475.663.977,1.269a6.37,6.37,0,0,0,1.1,1.053,5.457,5.457,0,0,0,1.312.721,4.355,4.355,0,0,0,1.578.274,2.786,2.786,0,0,0,1.159-.245,3.173,3.173,0,0,0,.949-.647,2.972,2.972,0,0,0,.642-.963,3.022,3.022,0,0,0,.238-1.193,3.311,3.311,0,0,0-.754-2.214,5.512,5.512,0,0,0-1.815-1.409l-4.83-2.329a11.222,11.222,0,0,1-1.4-.791A6.2,6.2,0,0,1,207,102.664a4.91,4.91,0,0,1-.838-1.294,3.9,3.9,0,0,1-.321-1.61,5.559,5.559,0,0,1,.419-2.157,5.71,5.71,0,0,1,1.144-1.768,5.461,5.461,0,0,1,1.7-1.208,4.986,4.986,0,0,1,2.092-.446,4.764,4.764,0,0,1,1.214.143q.544.143,1.074.316t1.074.316a4.731,4.731,0,0,0,1.213.143,2.941,2.941,0,0,0,1.9-.6,11.815,11.815,0,0,0,.1,2.971,15.684,15.684,0,0,0,.73,2.857,3.269,3.269,0,0,1-1.924-.89,20.138,20.138,0,0,1-1.644-1.723q-.447-.517-.907-1.034a7.394,7.394,0,0,0-.976-.919,4.6,4.6,0,0,0-1.129-.646,3.6,3.6,0,0,0-1.338-.244,2.312,2.312,0,0,0-1.645.661,2.161,2.161,0,0,0-.7,1.636,3.138,3.138,0,0,0,.418,1.608,2.519,2.519,0,0,0,1.058,1.033l6.768,3.388a5.335,5.335,0,0,1,1.114.789,5.587,5.587,0,0,1,.989,1.192,6.837,6.837,0,0,1,.7,1.493,5.4,5.4,0,0,1,.265,1.694A6.1,6.1,0,0,1,219.079,110.805Zm21.183,0a5.229,5.229,0,0,1-1.253,1.794,5.5,5.5,0,0,1-1.838,1.12,6.311,6.311,0,0,1-2.214.388,6.412,6.412,0,0,1-1.63-.2q-.766-.2-1.462-.459t-1.364-.459a4.725,4.725,0,0,0-1.365-.2,3.392,3.392,0,0,0-1.253.219,2.747,2.747,0,0,0-1.03.745q.027-.864.028-1.713a14.844,14.844,0,0,0-.1-1.7,9.711,9.711,0,0,0-.348-1.684,7.707,7.707,0,0,0-.7-1.612,3.472,3.472,0,0,1,1.366.26,4.987,4.987,0,0,1,1.159.692,7.176,7.176,0,0,1,1.018,1q.475.562.922,1.168.475.663.977,1.269a6.4,6.4,0,0,0,1.1,1.053,5.462,5.462,0,0,0,1.312.721,4.351,4.351,0,0,0,1.577.274,2.791,2.791,0,0,0,1.159-.245,3.189,3.189,0,0,0,.949-.647,2.983,2.983,0,0,0,.642-.963,3.035,3.035,0,0,0,.238-1.193,3.308,3.308,0,0,0-.755-2.214,5.517,5.517,0,0,0-1.814-1.409l-4.83-2.329a11.127,11.127,0,0,1-1.4-.791,6.209,6.209,0,0,1-1.186-1.021,4.926,4.926,0,0,1-.838-1.294,3.9,3.9,0,0,1-.321-1.61,5.571,5.571,0,0,1,.418-2.157,5.722,5.722,0,0,1,1.144-1.768,5.46,5.46,0,0,1,1.7-1.208,4.989,4.989,0,0,1,2.093-.446,4.762,4.762,0,0,1,1.213.143q.544.143,1.074.316t1.074.316a4.733,4.733,0,0,0,1.214.143,2.941,2.941,0,0,0,1.9-.6,11.851,11.851,0,0,0,.1,2.971,15.688,15.688,0,0,0,.73,2.857,3.269,3.269,0,0,1-1.924-.89,20.132,20.132,0,0,1-1.645-1.723q-.446-.517-.906-1.034a7.485,7.485,0,0,0-.976-.919,4.6,4.6,0,0,0-1.129-.646,3.6,3.6,0,0,0-1.338-.244,2.309,2.309,0,0,0-1.644.661,2.159,2.159,0,0,0-.7,1.636,3.137,3.137,0,0,0,.418,1.608,2.522,2.522,0,0,0,1.058,1.033l6.768,3.388a5.338,5.338,0,0,1,1.114.789,5.606,5.606,0,0,1,.989,1.192,6.839,6.839,0,0,1,.7,1.493,5.4,5.4,0,0,1,.264,1.694A6.1,6.1,0,0,1,240.262,110.805Zm22.812.56a19.116,19.116,0,0,0-.585,3.086,5.22,5.22,0,0,0-2.032-.689,17.793,17.793,0,0,0-1.978-.115H247.06v-.631a5.022,5.022,0,0,0,1-.1,2.475,2.475,0,0,0,.891-.358,2.05,2.05,0,0,0,.64-.689,2.138,2.138,0,0,0,.251-1.091V97.512a2.391,2.391,0,0,0-.251-1.135,2.358,2.358,0,0,0-.64-.775,2.441,2.441,0,0,0-.891-.431,4.012,4.012,0,0,0-1-.129v-.4h15.1a16.8,16.8,0,0,0,.236,2.44,6.56,6.56,0,0,0,1.1,2.556l-.028.258A5.712,5.712,0,0,1,260.79,98.6a9.373,9.373,0,0,1-.919-.9q-.419-.474-.864-.991a5.925,5.925,0,0,0-1-.875,2.186,2.186,0,0,0-1.281-.388h-1.671a1.4,1.4,0,0,0-.571.129,1.78,1.78,0,0,0-.529.359,1.869,1.869,0,0,0-.39.56,1.714,1.714,0,0,0-.153.732v5.8h3.815a2.084,2.084,0,0,0,1.24-.23,8.606,8.606,0,0,0,.961-.66q.472-.373,1.044-.747a3.773,3.773,0,0,1,1.489-.516,7.216,7.216,0,0,0-.459,2.555,7.545,7.545,0,0,0,.459,2.7,1.76,1.76,0,0,1-1.1-.3q-.6-.36-1.226-.818t-1.239-.847a2.193,2.193,0,0,0-1.17-.388H253.41v7.666a1.266,1.266,0,0,0,.181.689,1.636,1.636,0,0,0,.446.473,1.88,1.88,0,0,0,.543.273,1.644,1.644,0,0,0,.474.087h2.172a1.752,1.752,0,0,0,.961-.373,6.721,6.721,0,0,0,.919-.847q.459-.5.961-1.077a8.445,8.445,0,0,1,1.114-1.062,6.015,6.015,0,0,1,1.378-.819,4.376,4.376,0,0,1,1.741-.33A12.635,12.635,0,0,0,263.074,111.365Zm25.577-16.323a1.5,1.5,0,0,0-1,.459,4.884,4.884,0,0,0-.905,1.148,6.711,6.711,0,0,0-.641,1.479,5.073,5.073,0,0,0-.236,1.45v14.585L273.806,98.4v10.077a4.827,4.827,0,0,0,.251,1.45,7.228,7.228,0,0,0,.655,1.479,4.529,4.529,0,0,0,.933,1.149,1.648,1.648,0,0,0,1.086.459v.631h-6.824v-.631a1.649,1.649,0,0,0,1.045-.459,5.169,5.169,0,0,0,.989-1.149,7.02,7.02,0,0,0,.724-1.479,4.4,4.4,0,0,0,.278-1.45v-9.1a8.159,8.159,0,0,0-.139-1.436,4.736,4.736,0,0,0-.487-1.421,2.972,2.972,0,0,0-.961-1.063,2.717,2.717,0,0,0-1.559-.416v-.4h5.821l9.58,12.346V99.579a4.361,4.361,0,0,0-.306-1.55,6.787,6.787,0,0,0-.766-1.464,5.788,5.788,0,0,0-.961-1.091,1.444,1.444,0,0,0-.863-.43v-.4h6.35Zm9.249,10.211a9.507,9.507,0,0,0,1.434,2.833,7.286,7.286,0,0,0,2.242,2,5.839,5.839,0,0,0,2.952.748,4.067,4.067,0,0,0,2.743-.919,8.019,8.019,0,0,0,1.88-2.527l.279.258a13.009,13.009,0,0,1-1.128,2.627,8.661,8.661,0,0,1-1.588,2.039,6.571,6.571,0,0,1-4.637,1.795,7.453,7.453,0,0,1-3.564-.818,7.876,7.876,0,0,1-2.576-2.182,9.619,9.619,0,0,1-1.574-3.144,13.034,13.034,0,0,1-.529-3.732,12.37,12.37,0,0,1,.557-3.69,10.578,10.578,0,0,1,1.6-3.2,8.179,8.179,0,0,1,2.52-2.254,6.543,6.543,0,0,1,3.314-.847,7.355,7.355,0,0,1,1.323.125q.683.125,1.282.263t1.058.263a2.9,2.9,0,0,0,.683.124,1.3,1.3,0,0,0,.807-.233,3.358,3.358,0,0,1,.78-.428,12.653,12.653,0,0,0,.431,3.1,11.1,11.1,0,0,0,1.24,2.871,2.926,2.926,0,0,1-1.462-.072,3.569,3.569,0,0,1-1.142-.649,6.836,6.836,0,0,1-.961-1q-.445-.563-.863-1.169-.362-.492-.738-.953a6.009,6.009,0,0,0-.807-.822,3.739,3.739,0,0,0-.947-.577,2.968,2.968,0,0,0-1.157-.217,2.8,2.8,0,0,0-1.921.662,4.836,4.836,0,0,0-1.212,1.7,8.71,8.71,0,0,0-.64,2.287,17.1,17.1,0,0,0-.181,2.459A10.793,10.793,0,0,0,297.9,105.254Zm32.874,6.112a18.971,18.971,0,0,0-.585,3.086,5.22,5.22,0,0,0-2.033-.689,17.792,17.792,0,0,0-1.978-.115H314.759v-.631a5.028,5.028,0,0,0,1-.1,2.474,2.474,0,0,0,.891-.358,2.051,2.051,0,0,0,.641-.689,2.151,2.151,0,0,0,.25-1.091V97.512a2.407,2.407,0,0,0-.25-1.135,2.359,2.359,0,0,0-.641-.775,2.44,2.44,0,0,0-.891-.431,4.017,4.017,0,0,0-1-.129v-.4h15.095a16.993,16.993,0,0,0,.237,2.44,6.561,6.561,0,0,0,1.1,2.556l-.028.258a6.141,6.141,0,0,1-1.546-.531,6.052,6.052,0,0,1-1.127-.761,9.306,9.306,0,0,1-.919-.9q-.418-.474-.863-.991a5.929,5.929,0,0,0-1-.875,2.186,2.186,0,0,0-1.282-.388h-1.67a1.413,1.413,0,0,0-.572.129,1.817,1.817,0,0,0-.529.359,1.881,1.881,0,0,0-.389.56,1.714,1.714,0,0,0-.153.732v5.8h3.815a2.079,2.079,0,0,0,1.239-.23,8.543,8.543,0,0,0,.962-.66q.473-.373,1.044-.747a3.78,3.78,0,0,1,1.491-.516,7.2,7.2,0,0,0-.459,2.555,7.545,7.545,0,0,0,.459,2.7,1.761,1.761,0,0,1-1.1-.3q-.6-.36-1.226-.818t-1.24-.847a2.193,2.193,0,0,0-1.17-.388h-3.815v7.666a1.266,1.266,0,0,0,.181.689,1.636,1.636,0,0,0,.446.473,1.9,1.9,0,0,0,.543.273,1.652,1.652,0,0,0,.474.087h2.172a1.752,1.752,0,0,0,.961-.373,6.677,6.677,0,0,0,.919-.847q.459-.5.961-1.077a8.576,8.576,0,0,1,1.114-1.062,6.066,6.066,0,0,1,1.379-.819,4.378,4.378,0,0,1,1.741-.33A12.608,12.608,0,0,0,330.774,111.365ZM365.41,87.2c3.229-4.836,3.813-13.877,3.813-13.877s4.163,12.6.437,18.484-7.364,7.058-13.592,9.508-7.969,5.724-7.969,5.724a.091.091,0,0,1-.037.009c-.132,0-.367-.391,3.855-6.419C356.769,93.7,362.181,92.036,365.41,87.2Zm-8.3-14.409c3.855,1.568,6.656,8.08,5.931,13.168s-7.022,6.829-10.878,12.22a86.841,86.841,0,0,0-6.817,11.665,40.2,40.2,0,0,1,5.536-15.389C355.821,86.073,362.024,82.691,357.106,72.791ZM382.94,92.755c-3.69,6.339-7.381,9.018-7.381,9.018a36.827,36.827,0,0,0,5.667-16.86c2.175-1.7,4.684-6.339,4.684-6.339S386.63,86.416,382.94,92.755Zm-12.933-20.4A52.515,52.515,0,0,0,371.831,63s4.749,11.311,3.02,20.035S368.622,94.8,368.622,94.8,376.333,87.69,370.006,72.35Zm9.77,13.608s-2.005,15.749-10.347,20.192-13.586.065-20.034,5.62-2.57,13.592-2.57,13.592-5.379-7.515-.527-14.442,7.315-6.992,16.936-10.717S379.776,85.959,379.776,85.959Zm-12.628,27.124-2.991-.592s1.515,4.443-1.845,6.273a5.549,5.549,0,0,1-2.678.629,12.317,12.317,0,0,1-5.387-1.544s.209.021.531.021c1.214,0,4.029-.3,3.25-3.158-.387-1.418-1.688-2.106-3.336-2.106a10.5,10.5,0,0,0-8.064,4.785,11.865,11.865,0,0,1,9.16-7.653,14.535,14.535,0,0,1,2.236-.175A13.383,13.383,0,0,1,367.149,113.082ZM148.93,85.959c-.725-5.087,2.076-11.6,5.931-13.168-4.918,9.9,1.285,13.282,6.227,21.663a40.218,40.218,0,0,1,5.536,15.389,86.8,86.8,0,0,0-6.818-11.665C155.952,92.787,149.654,91.046,148.93,85.959Zm16.738,24.963c4.852,6.927-.527,14.442-.527,14.442s3.877-8.038-2.57-13.592-11.692-1.176-20.034-5.62-10.347-20.192-10.347-20.192,6.92,10.521,16.541,14.246S160.817,103.995,165.668,110.921ZM130.741,84.913a36.817,36.817,0,0,0,5.667,16.86s-3.691-2.679-7.381-9.018-2.971-14.181-2.971-14.181S128.566,83.214,130.741,84.913Zm23.2,29.8c-.779,2.858,2.037,3.158,3.251,3.158.322,0,.531-.021.531-.021a12.321,12.321,0,0,1-5.387,1.544,5.545,5.545,0,0,1-2.678-.629c-3.361-1.83-1.845-6.273-1.845-6.273l-2.991.592a13.38,13.38,0,0,1,9.124-3.52,14.527,14.527,0,0,1,2.235.175,11.865,11.865,0,0,1,9.16,7.653,10.5,10.5,0,0,0-8.064-4.785C155.626,112.605,154.325,113.293,153.938,114.712ZM142.744,73.323s.584,9.041,3.813,13.877,8.641,6.5,13.493,13.429c4.221,6.027,3.986,6.419,3.855,6.419a.091.091,0,0,1-.037-.009s-1.741-3.273-7.969-5.724-9.866-3.625-13.592-9.508S142.744,73.323,142.744,73.323Zm-5.627,9.711c-1.73-8.724,3.02-20.035,3.02-20.035a52.493,52.493,0,0,0,1.824,9.35c-6.326,15.34,1.384,22.447,1.384,22.447S138.847,91.758,137.117,83.035Z" transform="translate(-126 -63)" fill="#53432e"/><path d="M229.8,162.41l1.772-.72-1.029,5.365a14.911,14.911,0,0,1-6.177,9.624l-13.387,8.934.1-2.059a56,56,0,0,1,2.824-15.977l.267-.7.746.029C217.775,167.042,226.627,163.7,229.8,162.41Zm-41.839,56.139v48.074a33.024,33.024,0,0,1-17.274-28.887V209.17h.1v-5.656l2.337,5.656h13.587a14.077,14.077,0,0,1,7.258,2.016l9.345,5.624.026-19.554-8.869,1.643a28.471,28.471,0,0,1-5.173.475H170.689V184.118h.134V178.4h13.925a5.981,5.981,0,0,1,5.979,6.133l-.2,4.217,12.316-2.245-.045-.91a49.2,49.2,0,0,1,3.034-17.568l.54-1.442-18.254.455a115.773,115.773,0,0,1-37.615-5.923l-1.865-.6,4.729,16.264q.157.539.274,1.088l7.9-.174-7.556,5.536v54.512a49.194,49.194,0,0,0,4.576,20.751l-6.906-3.474,10.19,11.646a61.432,61.432,0,0,0,10.893,9.826,49.246,49.246,0,0,0,30.744,10.749h1.173V236.608a3.018,3.018,0,0,1,2.777-3l4.131-.315Zm183.995,19.187V197.865l-4.454.593a105.048,105.048,0,0,1-13.816.915H338.119V178.4h13.888a6.438,6.438,0,0,1,6.43,6.43v5.633l13.4-2.653.047-.8c.9-15.113,3.707-24.509,3.736-24.6l.646-2.133-2.05.875c-11.905,5.088-27.172,5.637-33.178,5.637l-22.787-.12.459,1.375A52.712,52.712,0,0,1,321.05,178.5l8.526.227-8.161,5.747c0,.084,0,.168,0,.252V216.48l1.635-1.141a34.113,34.113,0,0,1,19.619-6.169h8.793l12.934-.7-9.142,5.465v23.8a33.027,33.027,0,0,1-17.14,28.814V217.578l-23.44,15.732,2.99.228a4.079,4.079,0,0,1,3.751,4.049v49.648h1.039a49.236,49.236,0,0,0,17.435-3.18,58.263,58.263,0,0,0,26.083-17.4l10.19-11.646-9.385,4.721A49.178,49.178,0,0,0,371.958,237.736ZM225.127,262.619a57.09,57.09,0,0,0,4.587-22.325v-63.34l-19.442,12.162,1.229.907c.726.537.965,2.154,1.039,3.723l8.16-3.156-8.141,9.393v81.963l1.211-.714a39.5,39.5,0,0,0,17.4-21.528l1.563-4.69Zm74.583-85.94,13.386,8.934-.1-2.059a55.937,55.937,0,0,0-2.824-15.977l-.266-.7-.746.029c-2.858.132-11.71-3.209-14.884-4.5l-1.772-.72,1.029,5.365A14.915,14.915,0,0,0,299.71,176.679Zm-5.347.275v63.34a57.077,57.077,0,0,0,4.587,22.325l-7.606-7.606,1.564,4.69a39.5,39.5,0,0,0,17.4,21.528l1.211.714V199.341l-7.378-7.928-.4-.68,7.794,3.014c0-.036,0-.071,0-.107.08-1.535.324-3.091,1.035-3.616l1.229-.907Zm-23.646,21.672,17.5-5.759-.179-.843c-.011-.263-.03-1.457-.052-6.143a23.377,23.377,0,0,0-4.026-13.027l5.452,1.087-3.9-3.033a39.461,39.461,0,0,0-9.782-5.559,23.335,23.335,0,0,0-11.255-2.883h-.016l-3.893,0a23.547,23.547,0,0,0-23.5,23.516V254.75a25.049,25.049,0,0,0,5,15.049,39.5,39.5,0,0,0,15.157,15.028l4.322,2.4-5.527-8.079a25.185,25.185,0,0,0,31.4-24.4V200.781l-27.215,8.91-.136,13.357,6.99-4.09a2.433,2.433,0,0,1,3.662,2.1V254.75a8.491,8.491,0,0,1-8.908,8.47,8.616,8.616,0,0,1-8.053-8.746V181.362c0-6.806,4.563-9.342,7.439-9.342h1.7c5.742,0,7.826,5.821,7.826,9.733V187.7l9.881,1.531-9.881,1.721Z" transform="translate(-132.952 -92.87)" fill="#53432e"/></g></g></svg>