<svg xmlns="http://www.w3.org/2000/svg" width="260.969" height="195.059" viewBox="0 0 260.969 195.059"><g transform="translate(-18.999 49.686)"><g transform="translate(19.5 -49.492)"><path d="M354.841,81.886c-11.175.921-44.749,3.606-97.306,3.606-51.08,0-87.546-1.917-100.353-2.7,0,0,18.709,17.629,12.473,40.846a16.616,16.616,0,0,0,8.549,1.689c15.881-1.063,41.989-2.254,79.239-2.254,35.548,0,59.691,1.085,74.554,2.108,4.751.327,6.982.064,10.128-2.793C338.035,100.418,354.841,81.886,354.841,81.886Zm-158.163,29.48a19.048,19.048,0,0,0-.585,3.086,5.22,5.22,0,0,0-2.033-.689,17.792,17.792,0,0,0-1.978-.115H180.665v-.631a5.028,5.028,0,0,0,1-.1,2.48,2.48,0,0,0,.891-.358,2.05,2.05,0,0,0,.64-.689,2.145,2.145,0,0,0,.251-1.091V97.512a2.4,2.4,0,0,0-.251-1.135,2.358,2.358,0,0,0-.64-.775,2.446,2.446,0,0,0-.891-.431,4.017,4.017,0,0,0-1-.129v-.4h15.095a16.883,16.883,0,0,0,.236,2.44,6.571,6.571,0,0,0,1.1,2.556l-.028.258a6.121,6.121,0,0,1-1.546-.531,6.032,6.032,0,0,1-1.128-.761,9.382,9.382,0,0,1-.919-.9q-.418-.474-.863-.991a5.93,5.93,0,0,0-1-.875,2.183,2.183,0,0,0-1.281-.388h-1.671a1.409,1.409,0,0,0-.571.129,1.807,1.807,0,0,0-.529.359,1.855,1.855,0,0,0-.389.56,1.714,1.714,0,0,0-.154.732v5.8h3.816a2.081,2.081,0,0,0,1.239-.23,8.538,8.538,0,0,0,.961-.66q.473-.373,1.044-.747a3.773,3.773,0,0,1,1.49-.516,7.216,7.216,0,0,0-.459,2.555,7.546,7.546,0,0,0,.459,2.7,1.762,1.762,0,0,1-1.1-.3q-.6-.36-1.226-.818T192,104.159a2.2,2.2,0,0,0-1.17-.388h-3.816v7.666a1.26,1.26,0,0,0,.182.689,1.635,1.635,0,0,0,.446.473,1.879,1.879,0,0,0,.543.273,1.644,1.644,0,0,0,.473.087h2.172a1.752,1.752,0,0,0,.96-.373,6.681,6.681,0,0,0,.92-.847q.459-.5.96-1.077a8.533,8.533,0,0,1,1.114-1.062,6.035,6.035,0,0,1,1.379-.819,4.374,4.374,0,0,1,1.741-.33A12.577,12.577,0,0,0,196.678,111.365Zm22.4-.56a5.222,5.222,0,0,1-1.253,1.794,5.492,5.492,0,0,1-1.838,1.12,6.308,6.308,0,0,1-2.214.388,6.4,6.4,0,0,1-1.629-.2q-.766-.2-1.462-.459t-1.365-.459a4.723,4.723,0,0,0-1.364-.2,3.4,3.4,0,0,0-1.254.219,2.752,2.752,0,0,0-1.03.745q.028-.864.028-1.713a14.991,14.991,0,0,0-.1-1.7,9.709,9.709,0,0,0-.349-1.684,7.669,7.669,0,0,0-.7-1.612,3.467,3.467,0,0,1,1.366.26,4.987,4.987,0,0,1,1.159.692,7.183,7.183,0,0,1,1.019,1q.475.562.922,1.168.475.663.977,1.269a6.37,6.37,0,0,0,1.1,1.053,5.457,5.457,0,0,0,1.312.721,4.355,4.355,0,0,0,1.578.274,2.786,2.786,0,0,0,1.159-.245,3.173,3.173,0,0,0,.949-.647,2.972,2.972,0,0,0,.642-.963,3.022,3.022,0,0,0,.238-1.193,3.311,3.311,0,0,0-.754-2.214,5.512,5.512,0,0,0-1.815-1.409l-4.83-2.329a11.222,11.222,0,0,1-1.4-.791A6.2,6.2,0,0,1,207,102.664a4.91,4.91,0,0,1-.838-1.294,3.9,3.9,0,0,1-.321-1.61,5.559,5.559,0,0,1,.419-2.157,5.71,5.71,0,0,1,1.144-1.768,5.461,5.461,0,0,1,1.7-1.208,4.986,4.986,0,0,1,2.092-.446,4.764,4.764,0,0,1,1.214.143q.544.143,1.074.316t1.074.316a4.731,4.731,0,0,0,1.213.143,2.941,2.941,0,0,0,1.9-.6,11.815,11.815,0,0,0,.1,2.971,15.684,15.684,0,0,0,.73,2.857,3.269,3.269,0,0,1-1.924-.89,20.138,20.138,0,0,1-1.644-1.723q-.447-.517-.907-1.034a7.394,7.394,0,0,0-.976-.919,4.6,4.6,0,0,0-1.129-.646,3.6,3.6,0,0,0-1.338-.244,2.312,2.312,0,0,0-1.645.661,2.161,2.161,0,0,0-.7,1.636,3.138,3.138,0,0,0,.418,1.608,2.519,2.519,0,0,0,1.058,1.033l6.768,3.388a5.335,5.335,0,0,1,1.114.789,5.587,5.587,0,0,1,.989,1.192,6.837,6.837,0,0,1,.7,1.493,5.4,5.4,0,0,1,.265,1.694A6.1,6.1,0,0,1,219.079,110.805Zm21.183,0a5.229,5.229,0,0,1-1.253,1.794,5.5,5.5,0,0,1-1.838,1.12,6.311,6.311,0,0,1-2.214.388,6.412,6.412,0,0,1-1.63-.2q-.766-.2-1.462-.459t-1.364-.459a4.725,4.725,0,0,0-1.365-.2,3.392,3.392,0,0,0-1.253.219,2.747,2.747,0,0,0-1.03.745q.027-.864.028-1.713a14.844,14.844,0,0,0-.1-1.7,9.711,9.711,0,0,0-.348-1.684,7.707,7.707,0,0,0-.7-1.612,3.472,3.472,0,0,1,1.366.26,4.987,4.987,0,0,1,1.159.692,7.176,7.176,0,0,1,1.018,1q.475.562.922,1.168.475.663.977,1.269a6.4,6.4,0,0,0,1.1,1.053,5.462,5.462,0,0,0,1.312.721,4.351,4.351,0,0,0,1.577.274,2.791,2.791,0,0,0,1.159-.245,3.189,3.189,0,0,0,.949-.647,2.983,2.983,0,0,0,.642-.963,3.035,3.035,0,0,0,.238-1.193,3.308,3.308,0,0,0-.755-2.214,5.517,5.517,0,0,0-1.814-1.409l-4.83-2.329a11.127,11.127,0,0,1-1.4-.791,6.209,6.209,0,0,1-1.186-1.021,4.926,4.926,0,0,1-.838-1.294,3.9,3.9,0,0,1-.321-1.61,5.571,5.571,0,0,1,.418-2.157,5.722,5.722,0,0,1,1.144-1.768,5.46,5.46,0,0,1,1.7-1.208,4.989,4.989,0,0,1,2.093-.446,4.762,4.762,0,0,1,1.213.143q.544.143,1.074.316t1.074.316a4.733,4.733,0,0,0,1.214.143,2.941,2.941,0,0,0,1.9-.6,11.851,11.851,0,0,0,.1,2.971,15.688,15.688,0,0,0,.73,2.857,3.269,3.269,0,0,1-1.924-.89,20.132,20.132,0,0,1-1.645-1.723q-.446-.517-.906-1.034a7.485,7.485,0,0,0-.976-.919,4.6,4.6,0,0,0-1.129-.646,3.6,3.6,0,0,0-1.338-.244,2.309,2.309,0,0,0-1.644.661,2.159,2.159,0,0,0-.7,1.636,3.137,3.137,0,0,0,.418,1.608,2.522,2.522,0,0,0,1.058,1.033l6.768,3.388a5.338,5.338,0,0,1,1.114.789,5.606,5.606,0,0,1,.989,1.192,6.839,6.839,0,0,1,.7,1.493,5.4,5.4,0,0,1,.264,1.694A6.1,6.1,0,0,1,240.262,110.805Zm22.812.56a19.116,19.116,0,0,0-.585,3.086,5.22,5.22,0,0,0-2.032-.689,17.793,17.793,0,0,0-1.978-.115H247.06v-.631a5.022,5.022,0,0,0,1-.1,2.475,2.475,0,0,0,.891-.358,2.05,2.05,0,0,0,.64-.689,2.138,2.138,0,0,0,.251-1.091V97.512a2.391,2.391,0,0,0-.251-1.135,2.358,2.358,0,0,0-.64-.775,2.441,2.441,0,0,0-.891-.431,4.012,4.012,0,0,0-1-.129v-.4h15.1a16.8,16.8,0,0,0,.236,2.44,6.56,6.56,0,0,0,1.1,2.556l-.028.258A5.712,5.712,0,0,1,260.79,98.6a9.373,9.373,0,0,1-.919-.9q-.419-.474-.864-.991a5.925,5.925,0,0,0-1-.875,2.186,2.186,0,0,0-1.281-.388h-1.671a1.4,1.4,0,0,0-.571.129,1.78,1.78,0,0,0-.529.359,1.869,1.869,0,0,0-.39.56,1.714,1.714,0,0,0-.153.732v5.8h3.815a2.084,2.084,0,0,0,1.24-.23,8.606,8.606,0,0,0,.961-.66q.472-.373,1.044-.747a3.773,3.773,0,0,1,1.489-.516,7.216,7.216,0,0,0-.459,2.555,7.545,7.545,0,0,0,.459,2.7,1.76,1.76,0,0,1-1.1-.3q-.6-.36-1.226-.818t-1.239-.847a2.193,2.193,0,0,0-1.17-.388H253.41v7.666a1.266,1.266,0,0,0,.181.689,1.636,1.636,0,0,0,.446.473,1.88,1.88,0,0,0,.543.273,1.644,1.644,0,0,0,.474.087h2.172a1.752,1.752,0,0,0,.961-.373,6.721,6.721,0,0,0,.919-.847q.459-.5.961-1.077a8.445,8.445,0,0,1,1.114-1.062,6.015,6.015,0,0,1,1.378-.819,4.376,4.376,0,0,1,1.741-.33A12.635,12.635,0,0,0,263.074,111.365Zm25.577-16.323a1.5,1.5,0,0,0-1,.459,4.884,4.884,0,0,0-.905,1.148,6.711,6.711,0,0,0-.641,1.479,5.073,5.073,0,0,0-.236,1.45v14.585L273.806,98.4v10.077a4.827,4.827,0,0,0,.251,1.45,7.228,7.228,0,0,0,.655,1.479,4.529,4.529,0,0,0,.933,1.149,1.648,1.648,0,0,0,1.086.459v.631h-6.824v-.631a1.649,1.649,0,0,0,1.045-.459,5.169,5.169,0,0,0,.989-1.149,7.02,7.02,0,0,0,.724-1.479,4.4,4.4,0,0,0,.278-1.45v-9.1a8.159,8.159,0,0,0-.139-1.436,4.736,4.736,0,0,0-.487-1.421,2.972,2.972,0,0,0-.961-1.063,2.717,2.717,0,0,0-1.559-.416v-.4h5.821l9.58,12.346V99.579a4.361,4.361,0,0,0-.306-1.55,6.787,6.787,0,0,0-.766-1.464,5.788,5.788,0,0,0-.961-1.091,1.444,1.444,0,0,0-.863-.43v-.4h6.35Zm9.249,10.211a9.507,9.507,0,0,0,1.434,2.833,7.286,7.286,0,0,0,2.242,2,5.839,5.839,0,0,0,2.952.748,4.067,4.067,0,0,0,2.743-.919,8.019,8.019,0,0,0,1.88-2.527l.279.258a13.009,13.009,0,0,1-1.128,2.627,8.661,8.661,0,0,1-1.588,2.039,6.571,6.571,0,0,1-4.637,1.795,7.453,7.453,0,0,1-3.564-.818,7.876,7.876,0,0,1-2.576-2.182,9.619,9.619,0,0,1-1.574-3.144,13.034,13.034,0,0,1-.529-3.732,12.37,12.37,0,0,1,.557-3.69,10.578,10.578,0,0,1,1.6-3.2,8.179,8.179,0,0,1,2.52-2.254,6.543,6.543,0,0,1,3.314-.847,7.355,7.355,0,0,1,1.323.125q.683.125,1.282.263t1.058.263a2.9,2.9,0,0,0,.683.124,1.3,1.3,0,0,0,.807-.233,3.358,3.358,0,0,1,.78-.428,12.653,12.653,0,0,0,.431,3.1,11.1,11.1,0,0,0,1.24,2.871,2.926,2.926,0,0,1-1.462-.072,3.569,3.569,0,0,1-1.142-.649,6.836,6.836,0,0,1-.961-1q-.445-.563-.863-1.169-.362-.492-.738-.953a6.009,6.009,0,0,0-.807-.822,3.739,3.739,0,0,0-.947-.577,2.968,2.968,0,0,0-1.157-.217,2.8,2.8,0,0,0-1.921.662,4.836,4.836,0,0,0-1.212,1.7,8.71,8.71,0,0,0-.64,2.287,17.1,17.1,0,0,0-.181,2.459A10.793,10.793,0,0,0,297.9,105.254Zm32.874,6.112a18.971,18.971,0,0,0-.585,3.086,5.22,5.22,0,0,0-2.033-.689,17.792,17.792,0,0,0-1.978-.115H314.759v-.631a5.028,5.028,0,0,0,1-.1,2.474,2.474,0,0,0,.891-.358,2.051,2.051,0,0,0,.641-.689,2.151,2.151,0,0,0,.25-1.091V97.512a2.407,2.407,0,0,0-.25-1.135,2.359,2.359,0,0,0-.641-.775,2.44,2.44,0,0,0-.891-.431,4.017,4.017,0,0,0-1-.129v-.4h15.095a16.993,16.993,0,0,0,.237,2.44,6.561,6.561,0,0,0,1.1,2.556l-.028.258a6.141,6.141,0,0,1-1.546-.531,6.052,6.052,0,0,1-1.127-.761,9.306,9.306,0,0,1-.919-.9q-.418-.474-.863-.991a5.929,5.929,0,0,0-1-.875,2.186,2.186,0,0,0-1.282-.388h-1.67a1.413,1.413,0,0,0-.572.129,1.817,1.817,0,0,0-.529.359,1.881,1.881,0,0,0-.389.56,1.714,1.714,0,0,0-.153.732v5.8h3.815a2.079,2.079,0,0,0,1.239-.23,8.543,8.543,0,0,0,.962-.66q.473-.373,1.044-.747a3.78,3.78,0,0,1,1.491-.516,7.2,7.2,0,0,0-.459,2.555,7.545,7.545,0,0,0,.459,2.7,1.761,1.761,0,0,1-1.1-.3q-.6-.36-1.226-.818t-1.24-.847a2.193,2.193,0,0,0-1.17-.388h-3.815v7.666a1.266,1.266,0,0,0,.181.689,1.636,1.636,0,0,0,.446.473,1.9,1.9,0,0,0,.543.273,1.652,1.652,0,0,0,.474.087h2.172a1.752,1.752,0,0,0,.961-.373,6.677,6.677,0,0,0,.919-.847q.459-.5.961-1.077a8.576,8.576,0,0,1,1.114-1.062,6.066,6.066,0,0,1,1.379-.819,4.378,4.378,0,0,1,1.741-.33A12.608,12.608,0,0,0,330.774,111.365ZM365.41,87.2c3.229-4.836,3.813-13.877,3.813-13.877s4.163,12.6.437,18.484-7.364,7.058-13.592,9.508-7.969,5.724-7.969,5.724a.091.091,0,0,1-.037.009c-.132,0-.367-.391,3.855-6.419C356.769,93.7,362.181,92.036,365.41,87.2Zm-8.3-14.409c3.855,1.568,6.656,8.08,5.931,13.168s-7.022,6.829-10.878,12.22a86.841,86.841,0,0,0-6.817,11.665,40.2,40.2,0,0,1,5.536-15.389C355.821,86.073,362.024,82.691,357.106,72.791ZM382.94,92.755c-3.69,6.339-7.381,9.018-7.381,9.018a36.827,36.827,0,0,0,5.667-16.86c2.175-1.7,4.684-6.339,4.684-6.339S386.63,86.416,382.94,92.755Zm-12.933-20.4A52.515,52.515,0,0,0,371.831,63s4.749,11.311,3.02,20.035S368.622,94.8,368.622,94.8,376.333,87.69,370.006,72.35Zm9.77,13.608s-2.005,15.749-10.347,20.192-13.586.065-20.034,5.62-2.57,13.592-2.57,13.592-5.379-7.515-.527-14.442,7.315-6.992,16.936-10.717S379.776,85.959,379.776,85.959Zm-12.628,27.124-2.991-.592s1.515,4.443-1.845,6.273a5.549,5.549,0,0,1-2.678.629,12.317,12.317,0,0,1-5.387-1.544s.209.021.531.021c1.214,0,4.029-.3,3.25-3.158-.387-1.418-1.688-2.106-3.336-2.106a10.5,10.5,0,0,0-8.064,4.785,11.865,11.865,0,0,1,9.16-7.653,14.535,14.535,0,0,1,2.236-.175A13.383,13.383,0,0,1,367.149,113.082ZM148.93,85.959c-.725-5.087,2.076-11.6,5.931-13.168-4.918,9.9,1.285,13.282,6.227,21.663a40.218,40.218,0,0,1,5.536,15.389,86.8,86.8,0,0,0-6.818-11.665C155.952,92.787,149.654,91.046,148.93,85.959Zm16.738,24.963c4.852,6.927-.527,14.442-.527,14.442s3.877-8.038-2.57-13.592-11.692-1.176-20.034-5.62-10.347-20.192-10.347-20.192,6.92,10.521,16.541,14.246S160.817,103.995,165.668,110.921ZM130.741,84.913a36.817,36.817,0,0,0,5.667,16.86s-3.691-2.679-7.381-9.018-2.971-14.181-2.971-14.181S128.566,83.214,130.741,84.913Zm23.2,29.8c-.779,2.858,2.037,3.158,3.251,3.158.322,0,.531-.021.531-.021a12.321,12.321,0,0,1-5.387,1.544,5.545,5.545,0,0,1-2.678-.629c-3.361-1.83-1.845-6.273-1.845-6.273l-2.991.592a13.38,13.38,0,0,1,9.124-3.52,14.527,14.527,0,0,1,2.235.175,11.865,11.865,0,0,1,9.16,7.653,10.5,10.5,0,0,0-8.064-4.785C155.626,112.605,154.325,113.293,153.938,114.712ZM142.744,73.323s.584,9.041,3.813,13.877,8.641,6.5,13.493,13.429c4.221,6.027,3.986,6.419,3.855,6.419a.091.091,0,0,1-.037-.009s-1.741-3.273-7.969-5.724-9.866-3.625-13.592-9.508S142.744,73.323,142.744,73.323Zm-5.627,9.711c-1.73-8.724,3.02-20.035,3.02-20.035a52.493,52.493,0,0,0,1.824,9.35c-6.326,15.34,1.384,22.447,1.384,22.447S138.847,91.758,137.117,83.035Z" transform="translate(-126 -63)" fill="#eebb67"/><path d="M139.675,62.806l.958.142a52.321,52.321,0,0,0,1.8,9.235l.064.181-.073.177c-2.97,7.2-2.734,12.5-1.887,15.843a17.057,17.057,0,0,1-.231-1.913,29.454,29.454,0,0,1,.329-6.184,46.986,46.986,0,0,1,1.636-7.12l.974.125c.006.089.614,8.965,3.73,13.632a24.2,24.2,0,0,0,5.5,5.393,36.746,36.746,0,0,1,7.985,8.027c1.054,1.5,1.905,2.766,2.546,3.77-1.038-1.79-2.271-3.776-3.607-5.644a26.4,26.4,0,0,0-5.439-5.262c-2.611-2.068-5.077-4.022-5.526-7.178a15.454,15.454,0,0,1,1.286-8.177c1.208-2.722,3.013-4.736,4.952-5.524l1.224-.5-.588,1.183c-3.623,7.293-1,10.9,2.638,15.9,1.122,1.542,2.394,3.29,3.572,5.288a45.526,45.526,0,0,1,4.673,10.959,28.445,28.445,0,0,1,.931,4.641l-.95.256c-.014-.03-.689-1.451-1.8-3.5a.793.793,0,0,1,.019.7.548.548,0,0,1-.488.3.593.593,0,0,1-.267-.065l-.027-.014a33.949,33.949,0,0,1,2.466,3.165,11.452,11.452,0,0,1,2.052,5.413,13.187,13.187,0,0,1-.423,4.822,16.12,16.12,0,0,1-2.159,4.784l-.857-.508a13.513,13.513,0,0,0,1.086-4.56,11.039,11.039,0,0,0-.26-3.2l-.592.287a10.049,10.049,0,0,0-7.648-4.566c-.891,0-2.443.226-2.856,1.738a1.873,1.873,0,0,0,.157,1.675c.587.768,2.021.851,2.611.851.289,0,.48-.018.482-.018l.3.929a12.713,12.713,0,0,1-5.639,1.612,6.03,6.03,0,0,1-2.917-.69,4.707,4.707,0,0,1-2.444-4.247,8.186,8.186,0,0,1,.159-1.821l-3.776.748,1.1-1.147a11.735,11.735,0,0,1,2.526-1.849,14.233,14.233,0,0,1,6.672-1.821c-.339-.019-.682-.034-1.03-.05a22.072,22.072,0,0,1-10.324-2.423,14.841,14.841,0,0,1-5.32-5.2,31.407,31.407,0,0,1-3.219-6.842,48.474,48.474,0,0,1-2.068-8.529l.914-.338a46.41,46.41,0,0,0,4.621,5.671c2.637,2.782,6.805,6.495,11.682,8.383,1.369.53,2.608.991,3.7,1.4,5.2,1.937,7.878,2.934,10.8,6.114a8.611,8.611,0,0,0-1.581-1.831,19.572,19.572,0,0,0-6.116-3.639l-.97-.38a38.806,38.806,0,0,1-7.195-3.35,16.94,16.94,0,0,1-3.927-3.545l-.559.705a11.784,11.784,0,0,1-2.59-2.731,23.653,23.653,0,0,1-3.848-9.349c-.911-4.6-.032-9.882.866-13.506A51.968,51.968,0,0,1,139.675,62.806Zm1.75,9.529a44.019,44.019,0,0,1-1.534-7.259c-.416,1.191-.953,2.869-1.432,4.805-.871,3.521-1.727,8.644-.852,13.055a25.07,25.07,0,0,0,2.178,6.482,20.3,20.3,0,0,1-.777-7.119A31.569,31.569,0,0,1,141.426,72.336Zm24.1,34.251c-.089-.372-.191-.771-.307-1.193a44.526,44.526,0,0,0-4.561-10.686C159.5,92.752,158.3,91.1,157.139,89.5c-1.887-2.594-3.517-4.833-4.218-7.445a12.146,12.146,0,0,1,.834-8.045,10.908,10.908,0,0,0-3.12,4.247,14.43,14.43,0,0,0-1.21,7.63c.393,2.761,2.6,4.51,5.157,6.535a27.584,27.584,0,0,1,5.631,5.464A81.329,81.329,0,0,1,165.526,106.587Zm-3.753-2.54c-.528-.807-1.222-1.832-2.132-3.131a35.906,35.906,0,0,0-7.789-7.818,25.307,25.307,0,0,1-5.711-5.62,24.791,24.791,0,0,1-3.193-8.936c-.183-.953-.321-1.835-.425-2.593-.306,1.218-.652,2.79-.9,4.5-.732,4.957-.348,8.792,1.109,11.092,3.44,5.432,6.805,6.749,12.381,8.93l.972.381A21.632,21.632,0,0,1,161.773,104.047Zm5.013,16.4a10.769,10.769,0,0,0-1.527-9.234c-4.07-5.811-6.319-6.649-12.995-9.135-1.1-.408-2.338-.871-3.713-1.4a28.358,28.358,0,0,1-6.764-3.865,43.21,43.21,0,0,1-5.3-4.778,51.272,51.272,0,0,1-3.444-4.034,48.376,48.376,0,0,0,1.669,6.249c1.379,4.008,3.9,9.25,8.058,11.467a20.95,20.95,0,0,0,9.9,2.306c3.426.158,6.662.307,10.225,3.376a10.987,10.987,0,0,1,3.266,4.679A11.563,11.563,0,0,1,166.785,120.442Zm-3.874-6.291a10.658,10.658,0,0,0-6.81-3.919,14.08,14.08,0,0,0-2.159-.169h0a13.227,13.227,0,0,0-6.433,1.677c-.269.15-.516.3-.741.447l1.8-.356-.28.82a7.279,7.279,0,0,0-.31,2.3,3.7,3.7,0,0,0,1.921,3.372,5.045,5.045,0,0,0,2.439.568,10.03,10.03,0,0,0,3.372-.676,3.247,3.247,0,0,1-1.921-1.091,2.8,2.8,0,0,1-.328-2.545,3.113,3.113,0,0,1,1.419-1.882,4.653,4.653,0,0,1,2.4-.593A9.951,9.951,0,0,1,162.911,114.151Zm209.38-51.345a51.973,51.973,0,0,1,2.183,6.819c.9,3.624,1.778,8.909.866,13.506a23.654,23.654,0,0,1-3.848,9.349,11.785,11.785,0,0,1-2.59,2.731l-.559-.706a16.939,16.939,0,0,1-3.927,3.546,38.8,38.8,0,0,1-7.194,3.35l-.97.38a19.573,19.573,0,0,0-6.116,3.639,8.629,8.629,0,0,0-1.58,1.83c2.921-3.179,5.6-4.176,10.8-6.112,1.093-.407,2.332-.868,3.7-1.4,4.883-1.891,9.056-5.61,11.7-8.4a46.294,46.294,0,0,0,4.608-5.657l.914.338a48.478,48.478,0,0,1-2.069,8.529,31.407,31.407,0,0,1-3.219,6.842,14.841,14.841,0,0,1-5.32,5.2,22.072,22.072,0,0,1-10.324,2.423c-.348.016-.691.032-1.03.05a14.235,14.235,0,0,1,6.671,1.821,11.739,11.739,0,0,1,2.527,1.849l1.1,1.147-3.776-.748a8.186,8.186,0,0,1,.159,1.821,4.707,4.707,0,0,1-2.444,4.247,6.034,6.034,0,0,1-2.917.69A12.709,12.709,0,0,1,354,118.28l.3-.929s.192.018.481.018c.589,0,2.024-.083,2.611-.851a1.873,1.873,0,0,0,.157-1.675c-.412-1.512-1.965-1.738-2.854-1.738a10.049,10.049,0,0,0-7.65,4.566l-.592-.287a11.049,11.049,0,0,0-.258,3.236,13.428,13.428,0,0,0,1.084,4.526l-.857.508a16.12,16.12,0,0,1-2.159-4.784,13.187,13.187,0,0,1-.423-4.822,11.451,11.451,0,0,1,2.052-5.413,33.944,33.944,0,0,1,2.466-3.165l-.026.014a.593.593,0,0,1-.267.065.548.548,0,0,1-.488-.3.792.792,0,0,1,.019-.7c-1.109,2.051-1.784,3.471-1.8,3.5l-.95-.256a28.442,28.442,0,0,1,.93-4.642A45.51,45.51,0,0,1,350.448,94.2c1.178-2,2.45-3.746,3.572-5.288,3.635-5,6.261-8.606,2.638-15.9l-.588-1.183,1.224.5c1.939.789,3.744,2.8,4.952,5.524a15.454,15.454,0,0,1,1.286,8.177c-.45,3.156-2.916,5.11-5.527,7.178a26.405,26.405,0,0,0-5.439,5.262c-1.336,1.868-2.568,3.853-3.606,5.643.641-1,1.493-2.266,2.546-3.77a36.747,36.747,0,0,1,7.985-8.027,24.2,24.2,0,0,0,5.5-5.393c3.118-4.67,3.724-13.543,3.73-13.632l.974-.125a46.991,46.991,0,0,1,1.636,7.12,29.458,29.458,0,0,1,.329,6.184,17.056,17.056,0,0,1-.231,1.915c.847-3.347,1.083-8.642-1.887-15.844l-.073-.177.064-.181a52.333,52.333,0,0,0,1.8-9.235Zm-.11,26.613a25.069,25.069,0,0,0,2.179-6.482c.875-4.411.019-9.534-.852-13.055-.479-1.937-1.016-3.615-1.432-4.806a44.039,44.039,0,0,1-1.535,7.26,31.569,31.569,0,0,1,2.418,9.964A20.3,20.3,0,0,1,372.181,89.419Zm-25.733,17.155a81.341,81.341,0,0,1,5.305-8.687,27.59,27.59,0,0,1,5.632-5.464c2.556-2.025,4.764-3.774,5.158-6.535a14.431,14.431,0,0,0-1.21-7.63,10.91,10.91,0,0,0-3.12-4.247,12.146,12.146,0,0,1,.834,8.045c-.7,2.611-2.331,4.851-4.218,7.445-1.163,1.6-2.365,3.251-3.519,5.207A43.8,43.8,0,0,0,346.448,106.574Zm3.746-2.526a21.632,21.632,0,0,1,5.692-3.2l.972-.381c5.575-2.181,8.94-3.5,12.38-8.93,1.457-2.3,1.84-6.136,1.109-11.092-.252-1.707-.6-3.279-.9-4.5-.1.757-.242,1.64-.425,2.592a24.792,24.792,0,0,1-3.193,8.936,25.309,25.309,0,0,1-5.711,5.62,35.907,35.907,0,0,0-7.789,7.818C351.416,102.216,350.722,103.24,350.194,104.048Zm-5.012,16.4a11.563,11.563,0,0,1,.621-4.373,10.987,10.987,0,0,1,3.266-4.679c3.563-3.069,6.8-3.218,10.225-3.376a20.95,20.95,0,0,0,9.9-2.306c4.165-2.219,6.684-7.47,8.064-11.484a48.367,48.367,0,0,0,1.663-6.233,51.268,51.268,0,0,1-3.445,4.035,43.211,43.211,0,0,1-5.3,4.778,28.358,28.358,0,0,1-6.764,3.865c-1.375.532-2.617.995-3.713,1.4-6.675,2.486-8.924,3.323-12.994,9.134A10.769,10.769,0,0,0,345.182,120.444Zm20.018-8.258c-.225-.146-.472-.3-.742-.447a13.227,13.227,0,0,0-6.434-1.677h0a14.1,14.1,0,0,0-2.159.169,10.654,10.654,0,0,0-6.809,3.919,9.948,9.948,0,0,1,5.635-2.046,4.655,4.655,0,0,1,2.4.593,3.113,3.113,0,0,1,1.419,1.882,2.8,2.8,0,0,1-.328,2.545,3.247,3.247,0,0,1-1.921,1.091,10.03,10.03,0,0,0,3.372.676,5.048,5.048,0,0,0,2.439-.568,3.7,3.7,0,0,0,1.921-3.372,7.28,7.28,0,0,0-.31-2.3l-.276-.818Zm-239.49-35.3.787,1.454c.025.046,2.485,4.568,4.552,6.183l.171.133.019.216a38.806,38.806,0,0,0,3.126,12.09,28,28,0,0,0,2.45,4.522l-.7.7c-.154-.112-3.818-2.814-7.519-9.171a24.586,24.586,0,0,1-2.935-9.668,27.271,27.271,0,0,1-.1-4.81Zm4.552,8.286a21.8,21.8,0,0,1-3.761-4.835c0,.782.04,1.787.157,2.926a23.574,23.574,0,0,0,2.8,9.243,37.189,37.189,0,0,0,4.8,6.569c-.254-.5-.522-1.062-.8-1.679A39.824,39.824,0,0,1,130.263,85.169Zm255.994-8.286.151,1.646a27.263,27.263,0,0,1-.1,4.81,24.586,24.586,0,0,1-2.935,9.668c-3.7,6.357-7.365,9.059-7.519,9.171l-.7-.7a28.016,28.016,0,0,0,2.449-4.522,38.818,38.818,0,0,0,3.126-12.09l.019-.216.171-.133c2.067-1.615,4.528-6.137,4.552-6.183Zm-8.55,22.19a37.191,37.191,0,0,0,4.8-6.569,23.573,23.573,0,0,0,2.8-9.243c.117-1.139.154-2.145.157-2.926a21.793,21.793,0,0,1-3.761,4.835,39.835,39.835,0,0,1-3.2,12.224C378.229,98.01,377.961,98.571,377.707,99.072ZM356.062,81.283l-.851.938h0a58.546,58.546,0,0,0-7.828,11.926c-3.326,6.658-6.853,16.946-4.768,28.146l.051.274-.206.187a11.541,11.541,0,0,1-3.692,2.4,11.392,11.392,0,0,1-4.133.632c-.737,0-1.562-.034-2.674-.111-13.966-.961-38.232-2.107-74.519-2.107-37.643,0-63.849,1.225-79.205,2.253-.394.026-.792.04-1.185.04a17.161,17.161,0,0,1-7.621-1.78l-.366-.182.106-.395c3.176-11.823-.336-22.152-3.84-28.735a49.547,49.547,0,0,0-8.492-11.617l-1-.947,1.378.084c13.238.812,49.515,2.7,100.323,2.7,35.517,0,68.241-1.213,97.265-3.6ZM341.582,122.2a40.816,40.816,0,0,1,.315-15.511A53.493,53.493,0,0,1,346.5,93.674a62.411,62.411,0,0,1,7.18-11.191c-5.379.44-16.263,1.3-31.951,2.051-20.13.968-41.729,1.458-64.2,1.458-49.265,0-84.88-1.776-99.091-2.625a52.756,52.756,0,0,1,7.753,10.9,44.507,44.507,0,0,1,4.631,13.1,37.411,37.411,0,0,1-.586,15.993,16.185,16.185,0,0,0,6.81,1.5c.37,0,.746-.013,1.118-.037,15.371-1.029,41.6-2.255,79.272-2.255,36.316,0,60.606,1.147,74.588,2.109,1.074.074,1.9.108,2.605.108A9.073,9.073,0,0,0,341.582,122.2ZM218.272,93.371l-.109,1.173a11.367,11.367,0,0,0,.092,2.846,15.255,15.255,0,0,0,.707,2.766l.27.75-.792-.083a3.774,3.774,0,0,1-2.212-1.021,20.73,20.73,0,0,1-1.685-1.765c-.29-.335-.594-.681-.9-1.026a6.933,6.933,0,0,0-.91-.857,4.12,4.12,0,0,0-1.006-.575,3.12,3.12,0,0,0-1.153-.208,1.814,1.814,0,0,0-1.3.524,1.667,1.667,0,0,0-.541,1.273,2.656,2.656,0,0,0,.35,1.357,2.015,2.015,0,0,0,.847.836l6.776,3.393a5.856,5.856,0,0,1,1.219.862,6.111,6.111,0,0,1,1.078,1.3,7.372,7.372,0,0,1,.747,1.6,5.923,5.923,0,0,1,.29,1.851,6.616,6.616,0,0,1-.5,2.639,5.742,5.742,0,0,1-1.373,1.963,6.016,6.016,0,0,1-2,1.221,6.832,6.832,0,0,1-2.387.419,6.932,6.932,0,0,1-1.756-.217c-.532-.14-1.04-.3-1.51-.475s-.91-.322-1.334-.449a4.243,4.243,0,0,0-1.221-.18,2.919,2.919,0,0,0-1.07.184,2.274,2.274,0,0,0-.842.614l-.916,1.016.044-1.367c.019-.575.028-1.145.028-1.7a14.566,14.566,0,0,0-.095-1.641,9.254,9.254,0,0,0-.33-1.6,7.2,7.2,0,0,0-.651-1.507l-.43-.749h.863a3.979,3.979,0,0,1,1.561.3,5.508,5.508,0,0,1,1.274.76,7.724,7.724,0,0,1,1.09,1.065c.323.382.64.784.942,1.193l0,.006c.307.428.628.846.956,1.241a5.9,5.9,0,0,0,1.017.971,4.984,4.984,0,0,0,1.193.655,3.879,3.879,0,0,0,1.4.241,2.3,2.3,0,0,0,.953-.2,2.69,2.69,0,0,0,.8-.545,2.488,2.488,0,0,0,.534-.8,2.538,2.538,0,0,0,.2-1,2.8,2.8,0,0,0-.636-1.891,5.04,5.04,0,0,0-1.652-1.283l-4.828-2.328a11.768,11.768,0,0,1-1.456-.825,6.74,6.74,0,0,1-1.281-1.1,5.43,5.43,0,0,1-.922-1.424,4.415,4.415,0,0,1-.365-1.814,6.084,6.084,0,0,1,.457-2.349,6.232,6.232,0,0,1,1.244-1.921,5.982,5.982,0,0,1,1.856-1.318,5.5,5.5,0,0,1,2.3-.491,5.286,5.286,0,0,1,1.341.16c.371.1.742.207,1.1.324.333.108.686.212,1.048.308a4.261,4.261,0,0,0,1.085.127,2.437,2.437,0,0,0,1.585-.493Zm-2.5,2.229a5.254,5.254,0,0,1-1.341-.16c-.38-.1-.75-.21-1.1-.324-.22-.072-.445-.14-.671-.2a5.1,5.1,0,0,1,.693.454,7.938,7.938,0,0,1,1.042.981c.309.348.616.7.911,1.039a19.761,19.761,0,0,0,1.606,1.683,2.925,2.925,0,0,0,.828.551,16.427,16.427,0,0,1-.467-2.072,12.348,12.348,0,0,1-.152-2.173A3.852,3.852,0,0,1,215.768,95.6Zm.48,8.042-6.764-3.387a3.019,3.019,0,0,1-1.266-1.229,3.643,3.643,0,0,1-.486-1.86,2.726,2.726,0,0,1,.276-1.229q-.127.116-.247.242a5.236,5.236,0,0,0-1.044,1.615,5.089,5.089,0,0,0-.38,1.965,3.425,3.425,0,0,0,.278,1.406,4.431,4.431,0,0,0,.753,1.163,5.738,5.738,0,0,0,1.092.94,10.77,10.77,0,0,0,1.334.755l4.833,2.33a6.037,6.037,0,0,1,1.98,1.537,3.81,3.81,0,0,1,.872,2.537,3.531,3.531,0,0,1-.277,1.389,3.482,3.482,0,0,1-.749,1.122l-.061.059a4.949,4.949,0,0,0,1.1-.766,4.75,4.75,0,0,0,1.134-1.625,5.629,5.629,0,0,0,.418-2.242,4.925,4.925,0,0,0-.24-1.538,6.37,6.37,0,0,0-.645-1.383,5.113,5.113,0,0,0-.9-1.086A4.861,4.861,0,0,0,216.248,103.643Zm-7.633,6.81c-.288-.391-.591-.774-.9-1.139a6.727,6.727,0,0,0-.948-.927,4.507,4.507,0,0,0-1.042-.622,2.58,2.58,0,0,0-.307-.107,8.034,8.034,0,0,1,.311.855,10.254,10.254,0,0,1,.366,1.77,15.583,15.583,0,0,1,.1,1.755q0,.323,0,.654a2.817,2.817,0,0,1,.323-.152,3.91,3.91,0,0,1,1.437-.254,5.243,5.243,0,0,1,1.508.222c.445.133.914.291,1.395.469l.165.06q-.112-.076-.22-.156a6.9,6.9,0,0,1-1.189-1.135C209.27,111.335,208.935,110.9,208.615,110.453Zm30.841-17.082-.109,1.173a11.4,11.4,0,0,0,.092,2.846,15.261,15.261,0,0,0,.707,2.766l.27.75-.793-.083A3.775,3.775,0,0,1,237.41,99.8a20.72,20.72,0,0,1-1.685-1.765c-.283-.328-.587-.674-.9-1.026a7.023,7.023,0,0,0-.91-.857,4.121,4.121,0,0,0-1.006-.575,3.116,3.116,0,0,0-1.153-.208,1.811,1.811,0,0,0-1.3.524,1.666,1.666,0,0,0-.542,1.273,2.657,2.657,0,0,0,.35,1.357,2.017,2.017,0,0,0,.847.836l6.775,3.392a5.861,5.861,0,0,1,1.22.862,6.137,6.137,0,0,1,1.078,1.3,7.377,7.377,0,0,1,.748,1.6,5.925,5.925,0,0,1,.289,1.851,6.616,6.616,0,0,1-.5,2.639,5.748,5.748,0,0,1-1.373,1.963,6.02,6.02,0,0,1-2,1.221,6.838,6.838,0,0,1-2.388.419,6.943,6.943,0,0,1-1.756-.217c-.53-.139-1.038-.3-1.51-.474s-.912-.323-1.334-.449a4.245,4.245,0,0,0-1.221-.18,2.912,2.912,0,0,0-1.069.184,2.267,2.267,0,0,0-.842.614l-.914,1.017.043-1.367c.018-.583.027-1.154.027-1.7a14.419,14.419,0,0,0-.094-1.641,9.254,9.254,0,0,0-.33-1.6,7.236,7.236,0,0,0-.651-1.507l-.428-.748h.862a3.984,3.984,0,0,1,1.561.3,5.51,5.51,0,0,1,1.275.76,7.719,7.719,0,0,1,1.09,1.065c.328.388.645.79.942,1.193l0,.005c.307.429.629.846.956,1.241a5.924,5.924,0,0,0,1.017.971,4.988,4.988,0,0,0,1.193.655,3.873,3.873,0,0,0,1.4.241,2.307,2.307,0,0,0,.954-.2,2.705,2.705,0,0,0,.8-.545,2.467,2.467,0,0,0,.534-.8,2.547,2.547,0,0,0,.2-1,2.8,2.8,0,0,0-.636-1.891,5.046,5.046,0,0,0-1.652-1.283l-4.828-2.328a11.677,11.677,0,0,1-1.456-.825,6.739,6.739,0,0,1-1.281-1.1,5.444,5.444,0,0,1-.922-1.424,4.415,4.415,0,0,1-.364-1.814,6.1,6.1,0,0,1,.456-2.349,6.247,6.247,0,0,1,1.244-1.921,5.982,5.982,0,0,1,1.856-1.318,5.51,5.51,0,0,1,2.3-.491,5.283,5.283,0,0,1,1.341.16c.371.1.741.207,1.1.324.334.109.686.212,1.048.308a4.265,4.265,0,0,0,1.086.127,2.436,2.436,0,0,0,1.585-.493Zm-2.5,2.229a5.258,5.258,0,0,1-1.342-.16c-.379-.1-.75-.21-1.1-.324-.22-.072-.444-.14-.67-.2a5.092,5.092,0,0,1,.693.454,8.031,8.031,0,0,1,1.042.981c.316.356.623.705.912,1.04a19.731,19.731,0,0,0,1.606,1.682,2.926,2.926,0,0,0,.827.55,16.433,16.433,0,0,1-.467-2.072,12.39,12.39,0,0,1-.151-2.173A3.851,3.851,0,0,1,236.951,95.6Zm.48,8.042-6.765-3.387a3.021,3.021,0,0,1-1.266-1.229,3.643,3.643,0,0,1-.486-1.86,2.725,2.725,0,0,1,.276-1.229q-.128.116-.247.242A5.25,5.25,0,0,0,227.9,97.8a5.1,5.1,0,0,0-.379,1.965,3.424,3.424,0,0,0,.277,1.406,4.448,4.448,0,0,0,.753,1.163,5.74,5.74,0,0,0,1.092.94,10.687,10.687,0,0,0,1.334.755l4.833,2.33a6.042,6.042,0,0,1,1.979,1.537,3.807,3.807,0,0,1,.873,2.537,3.542,3.542,0,0,1-.277,1.388,3.5,3.5,0,0,1-.75,1.123l-.061.059a4.948,4.948,0,0,0,1.1-.766,4.756,4.756,0,0,0,1.133-1.625,5.628,5.628,0,0,0,.418-2.242,4.924,4.924,0,0,0-.239-1.538,6.37,6.37,0,0,0-.645-1.383,5.135,5.135,0,0,0-.9-1.086A4.87,4.87,0,0,0,237.431,103.643Zm-7.634,6.81c-.283-.384-.585-.767-.9-1.139a6.715,6.715,0,0,0-.948-.927,4.509,4.509,0,0,0-1.042-.622,2.59,2.59,0,0,0-.307-.107,8.025,8.025,0,0,1,.311.855,10.256,10.256,0,0,1,.366,1.771,15.42,15.42,0,0,1,.1,1.755q0,.322,0,.655a2.827,2.827,0,0,1,.324-.152,3.9,3.9,0,0,1,1.436-.254,5.245,5.245,0,0,1,1.509.222c.442.133.911.291,1.394.469l.164.06q-.112-.076-.22-.156a6.926,6.926,0,0,1-1.189-1.135C230.453,111.335,230.117,110.9,229.8,110.453Zm78.45-16.837.012.729a12.211,12.211,0,0,0,.414,2.979,10.653,10.653,0,0,0,1.184,2.743l.38.627-.723.125a3.43,3.43,0,0,1-1.71-.092,4.085,4.085,0,0,1-1.3-.739,7.37,7.37,0,0,1-1.031-1.068c-.3-.381-.6-.781-.878-1.189-.232-.315-.474-.627-.718-.927a5.537,5.537,0,0,0-.74-.755,3.259,3.259,0,0,0-.82-.5,2.485,2.485,0,0,0-.962-.177,2.3,2.3,0,0,0-1.591.537,4.366,4.366,0,0,0-1.085,1.525,8.246,8.246,0,0,0-.6,2.155,16.675,16.675,0,0,0-.176,2.388,10.345,10.345,0,0,0,.478,3.128,9.053,9.053,0,0,0,1.359,2.685,6.825,6.825,0,0,0,2.09,1.864,5.372,5.372,0,0,0,2.7.682,3.555,3.555,0,0,0,2.418-.8,7.565,7.565,0,0,0,1.758-2.372l.3-.595,1,.925-.093.3a13.573,13.573,0,0,1-1.172,2.728,9.2,9.2,0,0,1-1.68,2.155,7.07,7.07,0,0,1-4.979,1.93,7.978,7.978,0,0,1-3.8-.877,8.406,8.406,0,0,1-2.738-2.319,10.161,10.161,0,0,1-1.656-3.305,13.6,13.6,0,0,1-.55-3.875,12.926,12.926,0,0,1,.58-3.838,11.126,11.126,0,0,1,1.678-3.351,8.714,8.714,0,0,1,2.673-2.39,7.065,7.065,0,0,1,3.562-.914,7.883,7.883,0,0,1,1.413.134c.463.085.9.174,1.3.267s.754.181,1.076.268a2.387,2.387,0,0,0,.553.107.829.829,0,0,0,.5-.131,3.864,3.864,0,0,1,.895-.493Zm-2.075,1.9a3.259,3.259,0,0,1-.814-.141c-.309-.083-.66-.17-1.04-.259-.341-.079-.711-.155-1.1-.229a4.263,4.263,0,0,1,.56.4,6.536,6.536,0,0,1,.875.891c.256.314.51.641.753.972l.009.012c.271.392.555.777.844,1.143a6.367,6.367,0,0,0,.89.923,3.09,3.09,0,0,0,.983.559,1.913,1.913,0,0,0,.473.1,11.472,11.472,0,0,1-.9-2.291,13.035,13.035,0,0,1-.411-2.417l-.013.01A1.791,1.791,0,0,1,306.172,95.514Zm-1.644,15.821a6.359,6.359,0,0,1-3.2-.814,7.819,7.819,0,0,1-2.395-2.134,10.05,10.05,0,0,1-1.51-2.981,11.345,11.345,0,0,1-.524-3.43,17.683,17.683,0,0,1,.186-2.531,9.248,9.248,0,0,1,.678-2.417,5.6,5.6,0,0,1,.937-1.471,7.727,7.727,0,0,0-2.3,2.082,10.13,10.13,0,0,0-1.526,3.052,11.928,11.928,0,0,0-.535,3.542,12.594,12.594,0,0,0,.509,3.59,9.165,9.165,0,0,0,1.491,2.982,7.414,7.414,0,0,0,2.415,2.045,6.994,6.994,0,0,0,3.329.759,6.071,6.071,0,0,0,4.3-1.66,8.17,8.17,0,0,0,1.465-1.87q-.119.113-.241.218A4.571,4.571,0,0,1,304.528,111.335ZM180.165,94.141h16.084l.011.489A16.45,16.45,0,0,0,196.489,97a6.109,6.109,0,0,0,1.022,2.359l.1.152-.107.993-.544-.119a6.647,6.647,0,0,1-1.673-.577,6.562,6.562,0,0,1-1.221-.824,9.92,9.92,0,0,1-.967-.952c-.314-.357-.6-.68-.863-.99a5.459,5.459,0,0,0-.914-.8,1.681,1.681,0,0,0-1-.3h-1.671a.921.921,0,0,0-.369.086,1.313,1.313,0,0,0-.382.26,1.366,1.366,0,0,0-.284.411,1.212,1.212,0,0,0-.108.523v5.3h3.355a1.614,1.614,0,0,0,.946-.162,8.088,8.088,0,0,0,.906-.622c.32-.253.684-.513,1.079-.772a4.278,4.278,0,0,1,1.687-.592l.856-.134-.313.808a6.753,6.753,0,0,0-.426,2.379,7.08,7.08,0,0,0,.429,2.522l.218.6-.63.073a2.255,2.255,0,0,1-1.414-.369c-.413-.247-.838-.531-1.264-.844-.411-.3-.819-.579-1.211-.828a1.723,1.723,0,0,0-.9-.31h-3.316v7.166a.768.768,0,0,0,.1.421,1.132,1.132,0,0,0,.311.332,1.4,1.4,0,0,0,.4.2,1.157,1.157,0,0,0,.327.065h2.156a1.259,1.259,0,0,0,.676-.273,6.209,6.209,0,0,0,.851-.784c.316-.346.636-.705.953-1.068a9.072,9.072,0,0,1,1.18-1.125,6.566,6.566,0,0,1,1.492-.887,4.89,4.89,0,0,1,1.939-.371h.864l-.43.749a12.137,12.137,0,0,0-1.178,2.8,18.639,18.639,0,0,0-.569,3.005l-.081.762-.665-.381a4.747,4.747,0,0,0-1.839-.626,17.384,17.384,0,0,0-1.923-.112H180.165v-1.631h.5a4.551,4.551,0,0,0,.9-.091,2,2,0,0,0,.715-.286,1.541,1.541,0,0,0,.483-.524,1.672,1.672,0,0,0,.183-.84V97.512a1.921,1.921,0,0,0-.193-.9,1.871,1.871,0,0,0-.5-.613,1.935,1.935,0,0,0-.711-.343,3.536,3.536,0,0,0-.877-.113h-.5Zm7.666,1h-5.056l.089.066a2.864,2.864,0,0,1,.777.937,2.9,2.9,0,0,1,.309,1.369v13.264a2.642,2.642,0,0,1-.319,1.343,2.554,2.554,0,0,1-.8.854,2.831,2.831,0,0,1-.3.174h5.04a2.6,2.6,0,0,1-.221-.141,2.136,2.136,0,0,1-.578-.614,1.755,1.755,0,0,1-.259-.955V97.225a2.218,2.218,0,0,1,.2-.943,2.357,2.357,0,0,1,.494-.707A2.312,2.312,0,0,1,187.831,95.141Zm7.447,0h-3.9a2.617,2.617,0,0,1,.519.282,6.458,6.458,0,0,1,1.086.948l.01.011c.265.308.546.631.859.986a8.911,8.911,0,0,0,.87.856,5.564,5.564,0,0,0,1.036.7,4.157,4.157,0,0,0,.444.2,6.436,6.436,0,0,1-.7-1.957A17.674,17.674,0,0,1,195.278,95.141Zm-.439,10.321a8.154,8.154,0,0,1-.234-2.04,8.247,8.247,0,0,1,.22-1.851,2.409,2.409,0,0,0-.476.236c-.371.243-.71.486-1.008.721a9.09,9.09,0,0,1-1.018.7,2.129,2.129,0,0,1-.585.234,3.392,3.392,0,0,1,.531.277c.411.26.837.551,1.266.865.4.295.8.562,1.188.793Q194.781,105.431,194.839,105.461Zm.846,8.227a19.529,19.529,0,0,1,.512-2.456,12.955,12.955,0,0,1,.833-2.2,3.4,3.4,0,0,0-.669.206,5.566,5.566,0,0,0-1.264.75,8.07,8.07,0,0,0-1.049,1c-.321.368-.647.734-.968,1.085a7.208,7.208,0,0,1-.989.91,2.665,2.665,0,0,1-.242.162h.234a18.375,18.375,0,0,1,2.033.118A5.473,5.473,0,0,1,195.685,113.688ZM246.56,94.141h16.085l.011.489A16.376,16.376,0,0,0,262.885,97a6.1,6.1,0,0,0,1.022,2.359l.1.152-.109.993-.543-.118a6.21,6.21,0,0,1-2.893-1.4,9.9,9.9,0,0,1-.968-.952c-.275-.312-.566-.645-.864-.99a5.454,5.454,0,0,0-.913-.8,1.684,1.684,0,0,0-1-.3h-1.671a.916.916,0,0,0-.369.086,1.273,1.273,0,0,0-.382.259,1.383,1.383,0,0,0-.286.413,1.212,1.212,0,0,0-.107.522v5.3h3.354a1.617,1.617,0,0,0,.947-.162,8.147,8.147,0,0,0,.906-.622c.32-.253.683-.513,1.08-.772a4.277,4.277,0,0,1,1.686-.592l.857-.134-.313.808a6.753,6.753,0,0,0-.425,2.379,7.082,7.082,0,0,0,.428,2.522l.219.6-.63.073a2.251,2.251,0,0,1-1.414-.369c-.411-.246-.836-.53-1.265-.844-.411-.3-.818-.579-1.211-.828a1.72,1.72,0,0,0-.9-.311H253.91v7.166a.773.773,0,0,0,.1.422,1.131,1.131,0,0,0,.31.331,1.4,1.4,0,0,0,.4.2,1.159,1.159,0,0,0,.328.065h2.156a1.259,1.259,0,0,0,.677-.273,6.265,6.265,0,0,0,.85-.785c.311-.34.632-.7.953-1.068a8.985,8.985,0,0,1,1.18-1.125,6.545,6.545,0,0,1,1.491-.887,4.894,4.894,0,0,1,1.939-.371h.863l-.43.749a12.2,12.2,0,0,0-1.178,2.8,18.71,18.71,0,0,0-.569,3.005l-.081.762-.665-.381a4.747,4.747,0,0,0-1.839-.626,17.386,17.386,0,0,0-1.924-.112H246.56v-1.631h.5a4.543,4.543,0,0,0,.9-.091,1.991,1.991,0,0,0,.715-.285,1.542,1.542,0,0,0,.484-.524,1.666,1.666,0,0,0,.183-.84V97.512a1.914,1.914,0,0,0-.192-.9,1.872,1.872,0,0,0-.5-.614,1.955,1.955,0,0,0-.711-.342,3.526,3.526,0,0,0-.877-.113h-.5Zm7.667,1H249.17l.089.066a2.863,2.863,0,0,1,.776.936,2.893,2.893,0,0,1,.309,1.369v13.264a2.635,2.635,0,0,1-.319,1.344,2.553,2.553,0,0,1-.8.854,2.805,2.805,0,0,1-.3.174h5.039a2.6,2.6,0,0,1-.221-.141,2.136,2.136,0,0,1-.578-.614,1.761,1.761,0,0,1-.258-.955V97.225a2.219,2.219,0,0,1,.2-.943,2.374,2.374,0,0,1,.495-.707A2.286,2.286,0,0,1,254.227,95.141Zm7.447,0h-3.9a2.627,2.627,0,0,1,.519.282,6.452,6.452,0,0,1,1.085.948l.01.011c.3.344.586.676.86.986a8.911,8.911,0,0,0,.87.856,5.6,5.6,0,0,0,1.035.7,4.175,4.175,0,0,0,.444.2,6.435,6.435,0,0,1-.7-1.957A17.655,17.655,0,0,1,261.674,95.141Zm-.439,10.32a8.165,8.165,0,0,1-.234-2.04,8.265,8.265,0,0,1,.219-1.85,2.41,2.41,0,0,0-.476.235c-.371.243-.71.486-1.008.721a9.145,9.145,0,0,1-1.018.7,2.138,2.138,0,0,1-.586.234,3.38,3.38,0,0,1,.531.277c.411.26.837.551,1.266.865.4.3.8.562,1.188.793Q261.177,105.431,261.234,105.461Zm.846,8.227a19.554,19.554,0,0,1,.512-2.457,13.016,13.016,0,0,1,.834-2.2,3.415,3.415,0,0,0-.67.206,5.547,5.547,0,0,0-1.263.75,7.991,7.991,0,0,0-1.049,1c-.327.374-.653.739-.969,1.086a7.263,7.263,0,0,1-.988.91,2.665,2.665,0,0,1-.242.162h.234a18.379,18.379,0,0,1,2.034.118A5.471,5.471,0,0,1,262.08,113.688ZM269.3,94.141h6.565l8.835,11.386V99.579a3.884,3.884,0,0,0-.274-1.373,6.316,6.316,0,0,0-.709-1.356,5.316,5.316,0,0,0-.877-1c-.343-.295-.508-.31-.538-.31h-.5v-1.4h7.35v1.4h-.5a1.034,1.034,0,0,0-.665.328,4.412,4.412,0,0,0-.811,1.032,6.239,6.239,0,0,0-.593,1.369,4.6,4.6,0,0,0-.215,1.306V115.64l-12.06-15.762v8.6a4.357,4.357,0,0,0,.227,1.3,6.766,6.766,0,0,0,.609,1.377,4.053,4.053,0,0,0,.83,1.024,1.161,1.161,0,0,0,.758.337h.5v1.631h-7.824v-1.631h.5a1.191,1.191,0,0,0,.722-.341,4.694,4.694,0,0,0,.892-1.039,6.552,6.552,0,0,0,.672-1.373,3.933,3.933,0,0,0,.249-1.284v-9.1a7.7,7.7,0,0,0-.131-1.347,4.258,4.258,0,0,0-.435-1.272,2.458,2.458,0,0,0-.8-.887,2.246,2.246,0,0,0-1.278-.329h-.5Zm6.076,1h-3.6a3.473,3.473,0,0,1,.986,1.144,5.256,5.256,0,0,1,.539,1.57l.011.06v-.988l12.06,15.762V108.02Zm11.93,0h-3.758a6.4,6.4,0,0,1,.992,1.138,7.317,7.317,0,0,1,.823,1.572q.1.253.165.5.044-.182.1-.368a7.238,7.238,0,0,1,.689-1.588A5.414,5.414,0,0,1,287.3,95.141Zm-11.708,18.007a2.856,2.856,0,0,1-.277-.214,5.046,5.046,0,0,1-1.037-1.274,7.765,7.765,0,0,1-.7-1.58,6.218,6.218,0,0,1-.209-.854,5.758,5.758,0,0,1-.235.869,7.556,7.556,0,0,1-.776,1.584,5.692,5.692,0,0,1-1.086,1.259,3.176,3.176,0,0,1-.276.209Zm38.666-19.007h16.083l.011.488a16.571,16.571,0,0,0,.23,2.369,6.1,6.1,0,0,0,1.022,2.359l.1.152-.109.993-.543-.118a6.667,6.667,0,0,1-1.672-.577,6.585,6.585,0,0,1-1.221-.824,9.84,9.84,0,0,1-.968-.953c-.315-.357-.6-.681-.863-.99a5.457,5.457,0,0,0-.913-.8,1.685,1.685,0,0,0-1-.3h-1.67a.915.915,0,0,0-.37.087,1.306,1.306,0,0,0-.383.26,1.39,1.39,0,0,0-.284.411,1.212,1.212,0,0,0-.107.522v5.3h3.354a1.613,1.613,0,0,0,.946-.162,8.077,8.077,0,0,0,.907-.622c.323-.255.686-.515,1.079-.772a4.287,4.287,0,0,1,1.688-.592l.857-.134-.314.809a6.739,6.739,0,0,0-.426,2.379,7.079,7.079,0,0,0,.429,2.522l.219.6-.63.073a2.253,2.253,0,0,1-1.415-.369c-.412-.247-.837-.531-1.264-.844s-.82-.58-1.211-.827a1.72,1.72,0,0,0-.9-.311h-3.315v7.166a.773.773,0,0,0,.1.422,1.13,1.13,0,0,0,.31.331,1.415,1.415,0,0,0,.4.2,1.163,1.163,0,0,0,.328.065h2.156a1.259,1.259,0,0,0,.677-.273,6.212,6.212,0,0,0,.85-.784c.311-.34.631-.7.954-1.069a9.114,9.114,0,0,1,1.178-1.124,6.6,6.6,0,0,1,1.492-.887,4.895,4.895,0,0,1,1.939-.371h.863l-.43.749a12.164,12.164,0,0,0-1.177,2.8,18.556,18.556,0,0,0-.569,3.005l-.08.763-.666-.381a4.748,4.748,0,0,0-1.839-.626,17.384,17.384,0,0,0-1.923-.112H314.259v-1.631h.5a4.552,4.552,0,0,0,.9-.091,1.99,1.99,0,0,0,.715-.285,1.542,1.542,0,0,0,.485-.524,1.677,1.677,0,0,0,.182-.84V97.512a1.928,1.928,0,0,0-.193-.9,1.87,1.87,0,0,0-.5-.612,1.954,1.954,0,0,0-.711-.343,3.535,3.535,0,0,0-.877-.113h-.5Zm7.666,1H316.87l.089.066a2.863,2.863,0,0,1,.777.936,2.909,2.909,0,0,1,.308,1.369v13.264a2.648,2.648,0,0,1-.318,1.342,2.555,2.555,0,0,1-.8.855,2.8,2.8,0,0,1-.3.174h5.04q-.112-.064-.22-.141a2.137,2.137,0,0,1-.579-.614,1.762,1.762,0,0,1-.258-.955V97.225a2.219,2.219,0,0,1,.2-.943,2.386,2.386,0,0,1,.493-.706A2.331,2.331,0,0,1,321.926,95.141Zm7.447,0h-3.9a2.626,2.626,0,0,1,.519.282,6.454,6.454,0,0,1,1.086.948l.01.011c.264.307.545.63.859.986a8.829,8.829,0,0,0,.87.856,5.581,5.581,0,0,0,1.035.7,4.174,4.174,0,0,0,.444.2,6.434,6.434,0,0,1-.7-1.957A17.763,17.763,0,0,1,329.373,95.141Zm-.438,10.321a8.153,8.153,0,0,1-.234-2.04,8.252,8.252,0,0,1,.219-1.851,2.42,2.42,0,0,0-.477.236c-.367.241-.706.483-1.007.721a9.081,9.081,0,0,1-1.019.7,2.122,2.122,0,0,1-.585.234,3.381,3.381,0,0,1,.53.277c.409.259.836.55,1.267.865.4.295.8.562,1.188.793Q328.877,105.431,328.934,105.462Zm.845,8.227a19.5,19.5,0,0,1,.512-2.456,12.981,12.981,0,0,1,.833-2.2,3.414,3.414,0,0,0-.67.206,5.594,5.594,0,0,0-1.264.751,8.109,8.109,0,0,0-1.048,1c-.327.375-.653.74-.969,1.085a7.211,7.211,0,0,1-.988.91,2.669,2.669,0,0,1-.242.162h.234a18.375,18.375,0,0,1,2.033.118A5.474,5.474,0,0,1,329.78,113.688Z" transform="translate(-126 -63)" fill="rgba(0,0,0,0)"/><path d="M229.8,162.41l1.772-.72-1.029,5.365a14.911,14.911,0,0,1-6.177,9.624l-13.387,8.934.1-2.059a56,56,0,0,1,2.824-15.977l.267-.7.746.029C217.775,167.042,226.627,163.7,229.8,162.41Zm-41.839,56.139v48.074a33.024,33.024,0,0,1-17.274-28.887V209.17h.1v-5.656l2.337,5.656h13.587a14.077,14.077,0,0,1,7.258,2.016l9.345,5.624.026-19.554-8.869,1.643a28.471,28.471,0,0,1-5.173.475H170.689V184.118h.134V178.4h13.925a5.981,5.981,0,0,1,5.979,6.133l-.2,4.217,12.316-2.245-.045-.91a49.2,49.2,0,0,1,3.034-17.568l.54-1.442-18.254.455a115.773,115.773,0,0,1-37.615-5.923l-1.865-.6,4.729,16.264q.157.539.274,1.088l7.9-.174-7.556,5.536v54.512a49.194,49.194,0,0,0,4.576,20.751l-6.906-3.474,10.19,11.646a61.432,61.432,0,0,0,10.893,9.826,49.246,49.246,0,0,0,30.744,10.749h1.173V236.608a3.018,3.018,0,0,1,2.777-3l4.131-.315Zm183.995,19.187V197.865l-4.454.593a105.048,105.048,0,0,1-13.816.915H338.119V178.4h13.888a6.438,6.438,0,0,1,6.43,6.43v5.633l13.4-2.653.047-.8c.9-15.113,3.707-24.509,3.736-24.6l.646-2.133-2.05.875c-11.905,5.088-27.172,5.637-33.178,5.637l-22.787-.12.459,1.375A52.712,52.712,0,0,1,321.05,178.5l8.526.227-8.161,5.747c0,.084,0,.168,0,.252V216.48l1.635-1.141a34.113,34.113,0,0,1,19.619-6.169h8.793l12.934-.7-9.142,5.465v23.8a33.027,33.027,0,0,1-17.14,28.814V217.578l-23.44,15.732,2.99.228a4.079,4.079,0,0,1,3.751,4.049v49.648h1.039a49.236,49.236,0,0,0,17.435-3.18,58.263,58.263,0,0,0,26.083-17.4l10.19-11.646-9.385,4.721A49.178,49.178,0,0,0,371.958,237.736ZM225.127,262.619a57.09,57.09,0,0,0,4.587-22.325v-63.34l-19.442,12.162,1.229.907c.726.537.965,2.154,1.039,3.723l8.16-3.156-8.141,9.393v81.963l1.211-.714a39.5,39.5,0,0,0,17.4-21.528l1.563-4.69Zm74.583-85.94,13.386,8.934-.1-2.059a55.937,55.937,0,0,0-2.824-15.977l-.266-.7-.746.029c-2.858.132-11.71-3.209-14.884-4.5l-1.772-.72,1.029,5.365A14.915,14.915,0,0,0,299.71,176.679Zm-5.347.275v63.34a57.077,57.077,0,0,0,4.587,22.325l-7.606-7.606,1.564,4.69a39.5,39.5,0,0,0,17.4,21.528l1.211.714V199.341l-7.378-7.928-.4-.68,7.794,3.014c0-.036,0-.071,0-.107.08-1.535.324-3.091,1.035-3.616l1.229-.907Zm-23.646,21.672,17.5-5.759-.179-.843c-.011-.263-.03-1.457-.052-6.143a23.377,23.377,0,0,0-4.026-13.027l5.452,1.087-3.9-3.033a39.461,39.461,0,0,0-9.782-5.559,23.335,23.335,0,0,0-11.255-2.883h-.016l-3.893,0a23.547,23.547,0,0,0-23.5,23.516V254.75a25.049,25.049,0,0,0,5,15.049,39.5,39.5,0,0,0,15.157,15.028l4.322,2.4-5.527-8.079a25.185,25.185,0,0,0,31.4-24.4V200.781l-27.215,8.91-.136,13.357,6.99-4.09a2.433,2.433,0,0,1,3.662,2.1V254.75a8.491,8.491,0,0,1-8.908,8.47,8.616,8.616,0,0,1-8.053-8.746V181.362c0-6.806,4.563-9.342,7.439-9.342h1.7c5.742,0,7.826,5.821,7.826,9.733V187.7l9.881,1.531-9.881,1.721Z" transform="translate(-132.952 -92.87)" fill="#eebb67"/><path d="M377.057,159.39l-.957,3.159c-.028.093-2.814,9.415-3.715,24.487l-.07,1.188-14.378,2.846v-6.242a5.937,5.937,0,0,0-5.93-5.93H338.619v19.976h15.069a104.543,104.543,0,0,0,13.75-.911l5.02-.669v40.443a49.663,49.663,0,0,1-4.589,20.893l8.075-4.062.6.776-10.19,11.646a58.882,58.882,0,0,1-26.3,17.538,49.665,49.665,0,0,1-17.6,3.207H320.92V237.587a3.577,3.577,0,0,0-3.29-3.55L313.2,233.7l25.417-17.059v49.055a32.34,32.34,0,0,0,16.14-27.958V213.652l7.65-4.573-10.942.591h-8.793a33.615,33.615,0,0,0-19.333,6.079l-2.421,1.689V184.731c0-.038,0-.075,0-.112s0-.093,0-.14v-.259l7.14-5.028-7.45-.2-.051-.429a52.359,52.359,0,0,0-2.316-10.367l-.679-2.037,23.484.124c5.977,0,21.16-.545,32.979-5.6Zm-5.7,28,.024-.416c.912-15.261,3.728-24.626,3.757-24.719l.335-1.106-1.064.454c-11.989,5.124-27.333,5.677-33.374,5.677l-22.092-.116.238.714a53.366,53.366,0,0,1,2.307,10.136l9.6.256-9.177,6.463v30.786l.849-.592a34.61,34.61,0,0,1,19.9-6.259h8.78l12.921-.7.284.928-8.9,5.32v23.517a33.527,33.527,0,0,1-17.4,29.253l-.74.4V218.516l-21.464,14.405,1.551.118a4.581,4.581,0,0,1,4.214,4.547v49.148h.539a48.669,48.669,0,0,0,17.259-3.148l.025-.009A57.881,57.881,0,0,0,365.6,266.331l8.5-9.72-8.441,4.246.67-1.345a48.4,48.4,0,0,0,5.122-21.775v-39.3l-3.888.518a105.543,105.543,0,0,1-13.882.92H337.619V177.9h14.388a6.938,6.938,0,0,1,6.93,6.93v5.025ZM147.9,159.745l2.762.892a115.3,115.3,0,0,0,37.455,5.9l18.989-.473-.8,2.136a48.886,48.886,0,0,0-3,17.369l.067,1.348L190,189.352l.228-4.84a5.481,5.481,0,0,0-5.48-5.615H171.323v5.721h-.134v14.255H189.3a27.968,27.968,0,0,0,5.082-.466l9.461-1.753-.028,21.039-10.1-6.08a13.576,13.576,0,0,0-7-1.944H172.79l-1.5-3.636v3.636h-.1v28.066a32.313,32.313,0,0,0,16.274,28.036V217.647l24.6,15.366V199.8l6.947-8.015-6.933,2.681-.032-.693c-.115-2.457-.573-3.15-.837-3.344l-1.82-1.343,20.83-13.031v64.243a57.044,57.044,0,0,1-1.181,11.507,58.133,58.133,0,0,1-2.533,8.737l5.879-5.879.828.512-1.563,4.69a40,40,0,0,1-17.62,21.8l-1.965,1.159V233.762l-4.583.35a2.516,2.516,0,0,0-2.315,2.5v51.126h-1.673a49.745,49.745,0,0,1-31.044-10.848,62.021,62.021,0,0,1-10.97-9.9l-10.19-11.646.6-.776,5.652,2.843a49.677,49.677,0,0,1-4.047-19.674V182.971l6.48-4.748-6.731.148-.087-.4c-.077-.359-.166-.713-.265-1.053Zm40.23,7.791h-.006a116.246,116.246,0,0,1-37.769-5.947l-.968-.312,4.466,15.359c.068.234.132.475.191.719l9.083-.2-8.631,6.325v54.258a48.479,48.479,0,0,0,4.53,20.541l.6,1.3-5.9-2.969,8.505,9.72a61.016,61.016,0,0,0,10.8,9.747l.024.018a48.439,48.439,0,0,0,30.433,10.64h.673V236.608a3.52,3.52,0,0,1,3.239-3.494l2.613-.2-21.55-13.464v48.01l-.738-.4a33.524,33.524,0,0,1-17.536-29.327V208.67h.1v-5.156l.962-.191,2.209,5.347h13.253a14.576,14.576,0,0,1,7.515,2.087l8.588,5.169.024-18.069-8.278,1.533a28.973,28.973,0,0,1-5.264.483H170.189V183.618h.134V177.9h14.425a6.481,6.481,0,0,1,6.479,6.647v.009l-.169,3.589,11.266-2.054-.023-.473a49.859,49.859,0,0,1,3.065-17.768l.28-.748Zm37.356,95.437-.814-.549a56.961,56.961,0,0,0,4.547-22.129V177.857l-18.054,11.294.638.471c.662.49,1.048,1.582,1.2,3.413l7.524-2.91.558.794-8.019,9.252v33.468l.067.042-.067.005v47.386l.457-.27A39,39,0,0,0,230.7,259.546l.894-2.681Zm6.757-102.092-1.2,6.269a15.415,15.415,0,0,1-6.39,9.946l-14.212,9.484.148-3.049a56.652,56.652,0,0,1,2.857-16.131l.4-1.033,1.1.043c.051,0,.1,0,.153,0,2.592,0,10.106-2.671,14.523-4.466Zm-20.709,23.766,12.562-8.383a14.409,14.409,0,0,0,5.963-9.3l.856-4.462-.919.374c-1.77.719-4.648,1.816-7.42,2.737a29.219,29.219,0,0,1-7.48,1.8c-.067,0-.133,0-.2,0l-.384-.015-.139.362a55.567,55.567,0,0,0-2.792,15.823Zm80.311-23.766,2.625,1.066c3.056,1.242,11.623,4.466,14.523,4.466.052,0,.1,0,.149,0l1.108-.043.394,1.032a56.19,56.19,0,0,1,2.857,16.132l.148,3.049L299.433,177.1a15.418,15.418,0,0,1-6.391-9.946Zm17.148,6.532a29.219,29.219,0,0,1-7.48-1.8c-2.773-.922-5.651-2.018-7.419-2.737l-.92-.374.856,4.462a14.413,14.413,0,0,0,5.964,9.3l12.561,8.383-.052-1.068a55.1,55.1,0,0,0-2.792-15.822l-.138-.363-.387.015C309.121,167.412,309.055,167.413,308.988,167.413Zm-44.536-5.445h.016a23.967,23.967,0,0,1,11.468,2.929,39.951,39.951,0,0,1,9.876,5.617l3.9,3.033-.4.885-4.3-.857a23.856,23.856,0,0,1,3.47,12.3c.021,4.551.04,5.774.05,6.084l.263,1.239-18.579,6.115v-8.786l7.3-1.271-7.3-1.131v-6.377c0-3.711-1.951-9.233-7.326-9.233h-1.7c-2.683,0-6.939,2.4-6.939,8.842v73.111a8.117,8.117,0,0,0,7.577,8.247c.131.006.264.009.395.009a7.991,7.991,0,0,0,7.989-7.98V221.058a1.912,1.912,0,0,0-.971-1.677,1.908,1.908,0,0,0-1.939.008l-7.752,4.535.148-14.6,28.212-9.236V254.75a25.685,25.685,0,0,1-30.768,25.171l4.807,7.026-.656.719-4.322-2.4a39.989,39.989,0,0,1-15.333-15.191,25.548,25.548,0,0,1-5.085-15.323V185.986a24.048,24.048,0,0,1,24-24.016Zm22.978,11.069L285.2,171.3a38.956,38.956,0,0,0-9.658-5.488l-.03-.012-.028-.015a22.965,22.965,0,0,0-11.015-2.821l-3.909,0a23.046,23.046,0,0,0-23,23.016V254.75a24.449,24.449,0,0,0,4.9,14.749l.019.025.016.027a38.991,38.991,0,0,0,14.965,14.838l2.471,1.373-5.08-7.426,1.285.328a24.685,24.685,0,0,0,30.778-23.915V201.471L260.7,210.055l-.123,12.116,6.229-3.644a2.908,2.908,0,0,1,2.941-.012,2.9,2.9,0,0,1,1.473,2.544V254.75a8.991,8.991,0,0,1-8.989,8.98c-.147,0-.3,0-.443-.011a9.116,9.116,0,0,1-8.529-9.246V181.362c0-7.17,4.87-9.842,7.939-9.842h1.7a7.407,7.407,0,0,1,6.488,3.631,12.768,12.768,0,0,1,1.838,6.6v5.52l9.458,1.465.009.987-9.467,1.648v6.563l16.415-5.4-.094-.445,0-.042c-.012-.294-.031-1.6-.052-6.162a22.872,22.872,0,0,0-3.94-12.749l-.682-1.009Zm6.433,3.015,20.829,13.031-1.82,1.343c-.258.19-.708.864-.832,3.236l-.03.8-6.789-2.626,6.8,7.3v83.678l-1.965-1.159a40,40,0,0,1-17.619-21.8l-1.564-4.69.828-.512,5.879,5.879a58.113,58.113,0,0,1-2.533-8.737,57.053,57.053,0,0,1-1.181-11.507Zm19.053,13.1-18.053-11.294v62.438a56.949,56.949,0,0,0,4.547,22.129l-.814.55-6.108-6.108.894,2.681A39,39,0,0,0,310.561,280.8l.457.27V199.537l-7.281-7.825-1.146-1.962,8.49,3.283c.15-1.832.535-2.923,1.2-3.413Z" transform="translate(-132.952 -92.87)" fill="rgba(0,0,0,0)"/></g></g></svg>