<svg xmlns="http://www.w3.org/2000/svg" width="13.969" height="18" viewBox="0 0 13.969 18"><path d="M1.5-21H-5.016v9H-6.984v2.016h1.969v1.969H-6.984V-6h1.969v3H-3V-6H.984V-8.016H-3V-9.984H1.5a5.327,5.327,0,0,0,2.766-.75,5.534,5.534,0,0,0,1.992-1.992,5.421,5.421,0,0,0,.727-2.789,5.332,5.332,0,0,0-.727-2.742A5.534,5.534,0,0,0,4.266-20.25,5.327,5.327,0,0,0,1.5-21Zm0,9H-3v-6.984H1.5a3.324,3.324,0,0,1,1.758.469A3.771,3.771,0,0,1,4.523-17.25a3.239,3.239,0,0,1,.492,1.734,3.322,3.322,0,0,1-.492,1.781,3.771,3.771,0,0,1-1.266,1.266A3.324,3.324,0,0,1,1.5-12Z" transform="translate(6.984 21)" fill="#DBBF89"/></svg>