<svg xmlns="http://www.w3.org/2000/svg" width="14.977" height="14.977" viewBox="0 0 14.977 14.977"><path d="M13.43-4.957A5.7,5.7,0,0,0,15.012-9a5.831,5.831,0,0,0-1.037-3.375,5.848,5.848,0,0,0-2.725-2.18v.316a1.392,1.392,0,0,1-.457,1.037,1.477,1.477,0,0,1-1.055.439H8.262v1.512a.688.688,0,0,1-.229.527.776.776,0,0,1-.545.211H6.012V-9h4.5a.715.715,0,0,1,.527.211.715.715,0,0,1,.211.527v2.25h.738A1.436,1.436,0,0,1,13.43-4.957Zm-5.168,1.9V-4.5a1.449,1.449,0,0,1-1.055-.457A1.449,1.449,0,0,1,6.75-6.012V-6.75L3.164-10.336A5.513,5.513,0,0,0,2.988-9,5.723,5.723,0,0,0,4.518-5.027,5.917,5.917,0,0,0,8.262-3.059ZM3.709-14.291A7.212,7.212,0,0,1,9-16.488a7.212,7.212,0,0,1,5.291,2.2A7.212,7.212,0,0,1,16.488-9a7.212,7.212,0,0,1-2.2,5.291A7.212,7.212,0,0,1,9-1.512a7.212,7.212,0,0,1-5.291-2.2A7.212,7.212,0,0,1,1.512-9,7.212,7.212,0,0,1,3.709-14.291Z" transform="translate(-1.512 16.488)" fill="#fbf9f5" opacity="0.5"/></svg>