<svg xmlns="http://www.w3.org/2000/svg" xmlns:xlink="http://www.w3.org/1999/xlink" width="130" height="31.053" viewBox="0 0 130 31.053"><defs><style>.a,.c{fill:#fbf9f5;}.b{clip-path:url(#a);}.c,.d,.e,.f,.g,.i{fill-rule:evenodd;}.d,.e,.f,.h{fill:#1c60dd;}.d{opacity:0.498;}.e{opacity:0.698;}.f{opacity:0.898;}.g{fill:#c0c9d7;}.i{fill:#b0b5be;}</style><clipPath id="a"><rect class="a" width="130" height="31.053" transform="translate(0.221)"/></clipPath></defs><g class="b" transform="translate(-0.221)"><path class="c" d="M133.156,25.045a3.719,3.719,0,0,0,2.32-.707,2.429,2.429,0,0,0,.706-.886,2.457,2.457,0,0,0,.222-1.117,2.157,2.157,0,0,0-.56-1.527,5.368,5.368,0,0,0-1.829-1.146l-.84-.344a3.346,3.346,0,0,1-.909-.5.681.681,0,0,1-.185-.245.728.728,0,0,1-.066-.3c0-.568.4-.85,1.2-.85a2.678,2.678,0,0,1,1.12.231,2.784,2.784,0,0,1,.931.674l1.014-1.175a3.755,3.755,0,0,0-1.357-1.044,3.715,3.715,0,0,0-1.672-.33,3.452,3.452,0,0,0-2.223.7,2.242,2.242,0,0,0-.654.831,2.323,2.323,0,0,0-.211,1.044,2.09,2.09,0,0,0,.545,1.487,5.1,5.1,0,0,0,1.739,1.095l.891.381a3.943,3.943,0,0,1,.964.513.678.678,0,0,1,.2.264.715.715,0,0,1,.066.326.824.824,0,0,1-.393.729,1.807,1.807,0,0,1-1.018.264,3.423,3.423,0,0,1-2.463-1.267l-1.072,1.19a4.256,4.256,0,0,0,1.556,1.3A4.184,4.184,0,0,0,133.156,25.045ZM127.8,23.327a2.019,2.019,0,0,1-1.313-.355,1.449,1.449,0,0,1-.342-.542,1.47,1.47,0,0,1-.076-.641V17.615h2.6V15.97h-2.6V13.638h-1.891V15.97h-1.426v1.644h1.426v4.339a3,3,0,0,0,.847,2.314,3.4,3.4,0,0,0,2.383.776,7.907,7.907,0,0,0,1.553-.2V23.239C128.389,23.294,128,23.327,127.8,23.327Zm-6.742-6.6a3.1,3.1,0,0,0-2.4-.959,3.422,3.422,0,0,0-2.618,1.066v-.868h-1.749v8.876h1.873v-5.3a1.984,1.984,0,0,1,.131-.8,2.024,2.024,0,0,1,.429-.685,1.973,1.973,0,0,1,.658-.443,1.891,1.891,0,0,1,.778-.136,1.782,1.782,0,0,1,1.382.568,2.111,2.111,0,0,1,.524,1.494v5.3h1.873V19.3A3.621,3.621,0,0,0,121.061,16.728Zm-14,1.238a2.406,2.406,0,0,1,1.614-.586,2.246,2.246,0,0,1,1.585.586,2.082,2.082,0,0,1,.5.718,2.115,2.115,0,0,1,.16.864h-4.764A2.765,2.765,0,0,1,107.056,17.966Zm5.731,1.871a4.019,4.019,0,0,0-.28-1.575,3.963,3.963,0,0,0-.877-1.329,3.923,3.923,0,0,0-2.891-1.164,4.137,4.137,0,0,0-1.745.326,4.194,4.194,0,0,0-1.462,1.022,4.687,4.687,0,0,0-.96,5.127,4.626,4.626,0,0,0,1.749,2.076,4.535,4.535,0,0,0,2.6.721,4.839,4.839,0,0,0,1.887-.363,4.944,4.944,0,0,0,1.607-1.066l-.891-1.3a3.723,3.723,0,0,1-2.55,1.051,2.922,2.922,0,0,1-1.9-.626,2.627,2.627,0,0,1-.953-1.706h6.527A6.14,6.14,0,0,0,112.787,19.837Zm-10.833-3.1a3.028,3.028,0,0,0-2.371-.967,3.487,3.487,0,0,0-2.96,1.391,2.87,2.87,0,0,0-2.659-1.391,3.335,3.335,0,0,0-1.374.242,3.382,3.382,0,0,0-1.16.787v-.831H89.681v8.876h1.873V19.566a2.118,2.118,0,0,1,.534-1.494,1.817,1.817,0,0,1,.636-.436,1.788,1.788,0,0,1,.757-.132,1.665,1.665,0,0,1,.731.132,1.706,1.706,0,0,1,.607.436,2.179,2.179,0,0,1,.5,1.494v5.277H97.19V19.479a1.975,1.975,0,0,1,.123-.765,1.916,1.916,0,0,1,.408-.655,1.872,1.872,0,0,1,.64-.421,1.819,1.819,0,0,1,.752-.125,1.71,1.71,0,0,1,.728.128,1.692,1.692,0,0,1,.6.432,2.2,2.2,0,0,1,.491,1.5v5.277h1.891V19.3A3.69,3.69,0,0,0,101.954,16.736ZM84.145,22.423,81.629,15.97H79.61l3.495,8.477-.357.831a1.962,1.962,0,0,1-.742.97,1.914,1.914,0,0,1-1.164.333c-.2,0-.546-.026-1.036-.073v1.608a5.821,5.821,0,0,0,1.444.183,3.035,3.035,0,0,0,1.891-.59,4.611,4.611,0,0,0,1.32-1.853l4.262-9.887h-2Zm-7.6.56a2.312,2.312,0,0,1-1.615.6,1.824,1.824,0,0,1-1.113-.319A1,1,0,0,1,73.4,22.4c0-.725.516-1.084,1.553-1.084H77.2v.161a1.947,1.947,0,0,1-.16.824A2.084,2.084,0,0,1,76.548,22.983Zm1.564-6.233a3.569,3.569,0,0,0-1.207-.758,3.464,3.464,0,0,0-1.4-.216,4.153,4.153,0,0,0-2.091.458,4.223,4.223,0,0,0-1.6,1.443L72.9,18.794a3.111,3.111,0,0,1,2.426-1.318,1.872,1.872,0,0,1,.738.1,1.959,1.959,0,0,1,.644.385,1.911,1.911,0,0,1,.491,1.413v.579H74.719a3.7,3.7,0,0,0-2.353.688,2.21,2.21,0,0,0-.662.813,2.238,2.238,0,0,0-.215,1.029,2.319,2.319,0,0,0,.836,1.86,4.077,4.077,0,0,0,3.749.439,3.444,3.444,0,0,0,1.262-.926v1h1.749V19.479A3.677,3.677,0,0,0,78.112,16.75ZM64.536,14.619h2.371a2.12,2.12,0,0,1,1.531.531,1.891,1.891,0,0,1,.553,1.439,1.866,1.866,0,0,1-.124.773,1.813,1.813,0,0,1-.429.652,2.14,2.14,0,0,1-1.531.524H64.536Zm0,10.228v-4.61h2.407a4.072,4.072,0,0,0,2.88-1.029,3.593,3.593,0,0,0,.807-1.164,3.667,3.667,0,0,0,.305-1.392,3.758,3.758,0,0,0-.24-1.4,3.617,3.617,0,0,0-.753-1.2c-.036-.037-.073-.077-.109-.11a4.094,4.094,0,0,0-2.891-1.018h-4.3v11.93Zm-4.895-8.115a3.1,3.1,0,0,0-2.4-.959,3.424,3.424,0,0,0-2.618,1.066V15.97H52.873v8.876h1.873v-5.3a1.983,1.983,0,0,1,.131-.8,2.091,2.091,0,0,1,.429-.685,1.973,1.973,0,0,1,.658-.443,1.889,1.889,0,0,1,.778-.136,1.783,1.783,0,0,1,1.382.568,2.115,2.115,0,0,1,.524,1.494v5.3h1.873V19.3A3.635,3.635,0,0,0,59.641,16.732Zm-9.732-2.82a1.237,1.237,0,0,0,.891-.363,1.2,1.2,0,0,0,.28-.4,1.17,1.17,0,0,0,.095-.483,1.2,1.2,0,0,0-.095-.491,1.265,1.265,0,0,0-.28-.41,1.235,1.235,0,0,0-.895-.366,1.253,1.253,0,0,0-.491.088,1.28,1.28,0,0,0-.418.275,1.211,1.211,0,0,0-.28.406,1.249,1.249,0,0,0-.095.487,1.169,1.169,0,0,0,.095.483,1.2,1.2,0,0,0,.28.4A1.262,1.262,0,0,0,49.909,13.913Zm.927,10.934V15.97H48.964v8.876ZM44.8,22.459a2.7,2.7,0,0,1-1.906.831,2.692,2.692,0,0,1-1.927-.776l-.044-.044a2.77,2.77,0,0,1-.589-.945,2.858,2.858,0,0,1-.186-1.1,2.913,2.913,0,0,1,.786-2.069,2.707,2.707,0,0,1,.855-.608A2.637,2.637,0,0,1,43.84,17.7a2.678,2.678,0,0,1,.88.568l.091.088a3.023,3.023,0,0,1,0,4.112Zm-5.215,1.219a4.417,4.417,0,0,0,1.495,1.036,4.3,4.3,0,0,0,1.778.333,4.39,4.39,0,0,0,3.3-1.355,4.647,4.647,0,0,0,.051-6.511l-.051-.051a4.675,4.675,0,0,0-6.571-.011,4.594,4.594,0,0,0-.993,1.5,4.669,4.669,0,0,0,.975,5.046Zm-11.55-.425a5.958,5.958,0,0,0,2.011,1.355,5.87,5.87,0,0,0,2.375.436,6.078,6.078,0,0,0,2.953-.732A5.469,5.469,0,0,0,37.472,22.3l-1.429-1.066a4.3,4.3,0,0,1-1.331,1.38,4.213,4.213,0,0,1-3.688.447,4.264,4.264,0,0,1-1.615-1.022,4.71,4.71,0,0,1,0-6.306,4.214,4.214,0,0,1,1.615-1.018,4.265,4.265,0,0,1,1.895-.205,4.213,4.213,0,0,1,1.793.652,4.332,4.332,0,0,1,1.335,1.377l1.429-1.069a5.559,5.559,0,0,0-2.106-2.007,5.954,5.954,0,0,0-2.942-.74,5.9,5.9,0,0,0-4.389,1.787,6.21,6.21,0,0,0-.044,8.7A.5.5,0,0,0,28.039,23.254Z" transform="translate(-6.187 -2.71)"/><path class="d" d="M.367,14.685l.851-3.307,6-3.523v4.413L.367,16.651Z" transform="translate(-0.035 -1.868)"/><path class="e" d="M4.094,15.64l6.761-4.259v3.5s-.1,1.154-.6,1.37C9.894,16.4,4.1,19.873,4.1,19.873Z" transform="translate(-0.921 -2.706)"/><path class="f" d="M8.922,18.559l6.011-3.589v3.5s0,.967-.6,1.307c-.385.209-5.411,3.175-5.411,3.175Z" transform="translate(-2.069 -3.56)"/><path class="d" d="M12.191,5.543,15.5,3.383V7.8L12.2,9.842Z" transform="translate(-2.847 -0.804)"/><path class="e" d="M15.723,9.045l3.32-1.988v4.566l-3.32,1.955Z" transform="translate(-3.686 -1.678)"/><path class="d" d="M19.063,1.4,21.324,0V3.043s0,1.523-.6,1.827c-.116.062-1.651.967-1.651.967Z" transform="translate(-4.481)"/><path class="f" d="M19.125,13.1l2.251-1.37-.051,3.5a1.687,1.687,0,0,1-.6,1.37c-.149.136-1.684.894-1.658.908S19.114,12.977,19.125,13.1Z" transform="translate(-4.482 -2.79)"/><path class="e" d="M22.622,5.21,24.425,4s.018,1.813,0,3.043a2.847,2.847,0,0,1-.255,1.08,2.76,2.76,0,0,1-.644.9s-.931.59-.905.6S22.622,5.21,22.622,5.21Z" transform="translate(-5.327 -0.952)"/><path class="c" d="M7.243,7.85c-.029.062-5.513,2.82-6.342,3.764.425-.363-.36.359-.451,1.443l.262,10.2a2.829,2.829,0,0,0,1.64,2.966c1.469.857,9.964,5.746,11.008,6.24s1.313-.289,1.313-.289v-9.9A2.809,2.809,0,0,0,13.2,19.553c-.342-.3-11.354-5.383-11.819-6.983C.871,10.849,7.243,8.3,7.243,7.85Z" transform="translate(-0.054 -1.867)"/><path class="g" d="M18.433,26.536l.535-.392v10.55s-.258.527-.535.579C18.4,37.251,18.433,26.536,18.433,26.536Z" transform="translate(-4.327 -6.217)"/><path class="h" d="M.946,12.951a2.382,2.382,0,0,0,.262.344,1.842,1.842,0,0,1-.276-.41c-.647-1.7,4.055-3.6,6.015-4.878a53.915,53.915,0,0,0-5.7,3.23C.412,11.977.35,12.42.35,12.42l-.1.622c.022-.3.029-.571.1-.622C.346,12.475.939,12.874.946,12.951Z" transform="translate(-0.007 -1.904)"/><path class="h" d="M13.79,22.291c-.386-.33-5.32-2.618-8.732-4.684.2.128.382.242.524.337l8.081,16.471c.171.092.3.165.4.212l1.193.6V24.649A2.636,2.636,0,0,0,13.79,22.291Z" transform="translate(-1.15 -4.187)"/><path class="h" d="M3.905,16.683a11.719,11.719,0,0,1-2.7-2.029,2.194,2.194,0,0,1-.262-.344c-.007-.081-.586-.535-.571-.59a1.49,1.49,0,0,0-.142.677L.243,24.8a2.337,2.337,0,0,0,.32,1.227,4.316,4.316,0,0,0,.967,1.117c1.236.765,8.884,5.2,10.99,6.346L4.433,17.016Z" transform="translate(-0.002 -3.263)"/><path class="i" d="M15.478,29.024,13.8,27.973c-.3-.176-.586-.062-.44.249v2.827a.918.918,0,0,1,.149.615c-.24-.011.956,1,1.633,1.388.2.113.564.157.535-.3V29.391a.454.454,0,0,0-.051-.209A.379.379,0,0,0,15.478,29.024Z" transform="translate(-3.115 -6.632)"/><path class="c" d="M15.391,29.187a13.7,13.7,0,0,0-1.727-1.271c-.149-.11-.407-.033-.407.15a21.646,21.646,0,0,0,.167,3.541c.091.319,1.08.992,1.64,1.37.167.114.393.143.4-.066.033-.9,0-2.984,0-3.519A.308.308,0,0,0,15.391,29.187Z" transform="translate(-3.1 -6.626)"/></g></svg>