<svg xmlns="http://www.w3.org/2000/svg" width="130" height="20.998" viewBox="0 0 130 20.998"><rect width="20.998" height="20.998" rx="10.499" fill="#d8d8d8" opacity="0.01"/><path d="M20.517,15.092c1.369-4.027-4.31-6.951-9.822-2.968-3.459,2.5-8.914-.149-9.725-4.646A10.074,10.074,0,0,0,.823,15.14a10.745,10.745,0,0,0,9.873,6.93,10.526,10.526,0,0,0,9.822-6.978Z" transform="translate(-0.021 -1.166)" fill="#ffa600" fill-rule="evenodd"/><rect width="4.899" height="4.899" rx="2.45" transform="translate(5.039 2.8)" fill="#ffa600"/><path d="M.945,15.641s4.646.967,9.876-3.014,11.3-1.256,9.819,3.014a10.461,10.461,0,0,1-19.694,0Z" transform="translate(-0.147 -1.666)" fill="#1f19ff" fill-rule="evenodd"/><path d="M35.224,4.965a5.835,5.835,0,0,1,3.315.789A2.773,2.773,0,0,1,39.7,8.222a3.341,3.341,0,0,1-.316,1.507,2.606,2.606,0,0,1-.89,1.019,4.246,4.246,0,0,1-1.435.574,9.076,9.076,0,0,1-1.937.187h-.9v3.5H32.411v-9.8A8.45,8.45,0,0,1,33.8,5.022q.709-.055,1.421-.057Zm.129,1.564q-.689,0-1.134.043V9.959h.875A4.523,4.523,0,0,0,37.1,9.6a1.431,1.431,0,0,0,.7-1.392,1.647,1.647,0,0,0-.187-.818,1.34,1.34,0,0,0-.517-.517,2.322,2.322,0,0,0-.789-.258,5.061,5.061,0,0,0-.961-.086Zm10.189,2.54a4.729,4.729,0,0,0-.6-.144A3.928,3.928,0,0,0,43.447,8.9,3.6,3.6,0,0,0,43,9V15.01H41.265V7.864a9.072,9.072,0,0,1,1.248-.344,7.611,7.611,0,0,1,1.679-.172,3.244,3.244,0,0,1,.4.029,3.709,3.709,0,0,1,.459.057,3.426,3.426,0,0,1,.445.086,2.979,2.979,0,0,1,.344.086l-.3,1.464ZM48.8,15.01H47.069V7.5H48.8Zm.187-9.7a.994.994,0,0,1-.316.775,1.072,1.072,0,0,1-.746.287,1.088,1.088,0,0,1-.76-.287,1,1,0,0,1-.317-.775,1.014,1.014,0,0,1,.316-.789,1.091,1.091,0,0,1,.761-.287,1.071,1.071,0,0,1,.746.287A1.011,1.011,0,0,1,48.991,5.309ZM55.3,11.064a3.53,3.53,0,0,0-.3-1.693,1.123,1.123,0,0,0-1.09-.531,5.119,5.119,0,0,0-.631.043q-.259.031-.517.072V15.01H51.021V7.749a11.676,11.676,0,0,1,1.305-.273,11.038,11.038,0,0,1,1.722-.129,3.366,3.366,0,0,1,1.263.2,2.444,2.444,0,0,1,.833.531,3.6,3.6,0,0,1,.947-.474,4.491,4.491,0,0,1,.631-.187,3.368,3.368,0,0,1,.689-.072,3.442,3.442,0,0,1,1.435.258,1.991,1.991,0,0,1,.889.7A2.55,2.55,0,0,1,61.181,9.4a6.962,6.962,0,0,1,.128,1.392V15.01H59.574V11.064a3.693,3.693,0,0,0-.287-1.693,1.141,1.141,0,0,0-1.106-.531,2.181,2.181,0,0,0-.788.144,2.383,2.383,0,0,0-.56.258,3.93,3.93,0,0,1,.158.761,8.1,8.1,0,0,1,.042.861V15.01H55.3V11.064Zm7.724.23a4.814,4.814,0,0,1,.287-1.736A3.647,3.647,0,0,1,64.1,8.323a3.108,3.108,0,0,1,1.119-.746,3.382,3.382,0,0,1,1.292-.258,3.07,3.07,0,0,1,2.411.961,4.136,4.136,0,0,1,.875,2.87c0,.1,0,.206-.014.33s-.005.219-.014.316H64.814a2.02,2.02,0,0,0,.631,1.406,2.485,2.485,0,0,0,1.651.488,5.3,5.3,0,0,0,1.148-.115,4.7,4.7,0,0,0,.832-.244l.23,1.421a3.2,3.2,0,0,1-.4.158,5.07,5.07,0,0,1-.574.129,6.631,6.631,0,0,1-1.449.158,4.7,4.7,0,0,1-1.722-.287,3.321,3.321,0,0,1-1.2-.818,3.431,3.431,0,0,1-.7-1.234,5.106,5.106,0,0,1-.23-1.564Zm5.036-.775a2.221,2.221,0,0,0-.1-.674,1.5,1.5,0,0,0-.3-.56,1.212,1.212,0,0,0-.473-.373,1.4,1.4,0,0,0-.66-.144,1.494,1.494,0,0,0-.7.158,1.6,1.6,0,0,0-.517.387,1.885,1.885,0,0,0-.316.56,3.02,3.02,0,0,0-.159.646Zm8.557.775a2.773,2.773,0,0,0-.531-1.808A2.024,2.024,0,0,0,74.4,8.839a4.885,4.885,0,0,0-.517.029,2.429,2.429,0,0,0-.517.086v4.291a2.935,2.935,0,0,0,.6.3,2.575,2.575,0,0,0,.819.129,1.534,1.534,0,0,0,1.377-.646A3.009,3.009,0,0,0,76.614,11.293Zm1.779-.029a5.142,5.142,0,0,1-.23,1.579,3.585,3.585,0,0,1-.631,1.234,2.823,2.823,0,0,1-1.047.8,3.3,3.3,0,0,1-1.407.287,3.5,3.5,0,0,1-.976-.129,3.643,3.643,0,0,1-.732-.287v2.913H71.635V7.749q.532-.143,1.306-.273a9.947,9.947,0,0,1,1.636-.129,4.383,4.383,0,0,1,1.593.273,3.208,3.208,0,0,1,1.191.789,3.24,3.24,0,0,1,.761,1.234,4.528,4.528,0,0,1,.273,1.622Zm4.43,2.526a6.455,6.455,0,0,0,1.22-.086V11.781a3.879,3.879,0,0,0-1.019-.129,4.164,4.164,0,0,0-.588.043,1.9,1.9,0,0,0-.531.158.956.956,0,0,0-.373.33.871.871,0,0,0-.143.517.936.936,0,0,0,.388.861A2.048,2.048,0,0,0,82.824,13.79ZM82.68,7.318a4.245,4.245,0,0,1,1.449.215,2.253,2.253,0,0,1,.933.6,2.146,2.146,0,0,1,.5.947,4.314,4.314,0,0,1,.158,1.205v4.549q-.606.12-1.22.2a11.562,11.562,0,0,1-1.822.129,5.5,5.5,0,0,1-1.234-.129,2.666,2.666,0,0,1-.961-.416,2.055,2.055,0,0,1-.616-.746,2.662,2.662,0,0,1-.216-1.134,2.24,2.24,0,0,1,.245-1.091,2.052,2.052,0,0,1,.688-.718,2.767,2.767,0,0,1,.99-.4,5.411,5.411,0,0,1,1.191-.129,4.459,4.459,0,0,1,.6.043,4.792,4.792,0,0,1,.675.115v-.287a2.245,2.245,0,0,0-.073-.574,1.219,1.219,0,0,0-.731-.8,2.006,2.006,0,0,0-.733-.115,6.559,6.559,0,0,0-1.1.086,4.838,4.838,0,0,0-.818.2L80.37,7.663a6.945,6.945,0,0,1,.962-.23,7.541,7.541,0,0,1,1.348-.115ZM93.795,7.5a54.689,54.689,0,0,1-2.7,7.749,7.836,7.836,0,0,1-.588,1.1,3.29,3.29,0,0,1-.674.761A2.309,2.309,0,0,1,89,17.55a3.576,3.576,0,0,1-1.062.144,3.82,3.82,0,0,1-.8-.086,2.675,2.675,0,0,1-.588-.187l.316-1.392a2.79,2.79,0,0,0,1.019.2,1.525,1.525,0,0,0,1.047-.33,2.526,2.526,0,0,0,.675-.99q-.867-1.685-1.579-3.444A39.164,39.164,0,0,1,86.691,7.5h1.851q.143.6.344,1.306.435,1.452.976,2.87.272.718.545,1.335.458-1.278.861-2.712.4-1.45.732-2.8h1.794Zm5.59,3.559a3.532,3.532,0,0,0-.3-1.693,1.125,1.125,0,0,0-1.091-.531,5.118,5.118,0,0,0-.631.043q-.344.043-.517.072V15.01H95.108V7.749a11.7,11.7,0,0,1,1.306-.273,11.038,11.038,0,0,1,1.722-.129,3.366,3.366,0,0,1,1.263.2,2.44,2.44,0,0,1,.832.531,3.606,3.606,0,0,1,.947-.474,4.381,4.381,0,0,1,.631-.187,3.368,3.368,0,0,1,.689-.072,3.439,3.439,0,0,1,1.435.258,1.994,1.994,0,0,1,.89.7,2.549,2.549,0,0,1,.445,1.091,6.958,6.958,0,0,1,.129,1.392V15.01h-1.736V11.064a3.682,3.682,0,0,0-.287-1.693,1.139,1.139,0,0,0-1.1-.531,2.185,2.185,0,0,0-.789.144,2.384,2.384,0,0,0-.56.258,3.806,3.806,0,0,1,.158.761,8.092,8.092,0,0,1,.043.861V15.01H99.385V11.064Zm7.724.23a4.814,4.814,0,0,1,.287-1.736,3.648,3.648,0,0,1,.789-1.234,3.1,3.1,0,0,1,1.119-.746,3.385,3.385,0,0,1,1.292-.258,3.07,3.07,0,0,1,2.411.961,4.14,4.14,0,0,1,.875,2.87c0,.1-.005.206-.014.33s-.005.219-.014.316H108.9a2.02,2.02,0,0,0,.631,1.406,2.481,2.481,0,0,0,1.65.488,5.283,5.283,0,0,0,1.148-.115,4.7,4.7,0,0,0,.832-.244l.23,1.421a3.182,3.182,0,0,1-.4.158,5.227,5.227,0,0,1-.574.129,6.635,6.635,0,0,1-1.449.158,4.7,4.7,0,0,1-1.722-.287,3.321,3.321,0,0,1-1.205-.818,3.427,3.427,0,0,1-.7-1.234,5.116,5.116,0,0,1-.23-1.564Zm5.037-.775a2.221,2.221,0,0,0-.1-.674,1.491,1.491,0,0,0-.3-.56,1.207,1.207,0,0,0-.474-.373,1.4,1.4,0,0,0-.66-.144,1.492,1.492,0,0,0-.7.158,1.6,1.6,0,0,0-.517.387,1.887,1.887,0,0,0-.316.56,3.014,3.014,0,0,0-.158.646Zm3.577-2.77a11.7,11.7,0,0,1,1.306-.273,11.26,11.26,0,0,1,1.779-.129,3.99,3.99,0,0,1,1.535.258,2.259,2.259,0,0,1,.976.7,2.507,2.507,0,0,1,.517,1.091,5.723,5.723,0,0,1,.158,1.392V15.01h-1.736V11.064a5.122,5.122,0,0,0-.086-1.019,1.629,1.629,0,0,0-.258-.689.94.94,0,0,0-.488-.387,1.9,1.9,0,0,0-.746-.129,5.779,5.779,0,0,0-.689.043q-.358.043-.531.072V15.01h-1.736V7.749Zm8.308-2.224,1.736-.287V7.5h2.669V8.954h-2.669v3.057a2.225,2.225,0,0,0,.287,1.292,1.136,1.136,0,0,0,.976.387,3.109,3.109,0,0,0,.832-.1,5.487,5.487,0,0,0,.588-.187l.287,1.378a5.856,5.856,0,0,1-.789.258,4.1,4.1,0,0,1-1.148.144,3.7,3.7,0,0,1-1.349-.215,2.016,2.016,0,0,1-.847-.617,2.54,2.54,0,0,1-.445-.99,6.253,6.253,0,0,1-.129-1.335v-6.5ZM132,13.762a2.374,2.374,0,0,0,1-.158.6.6,0,0,0,.316-.574.731.731,0,0,0-.344-.617,4.767,4.767,0,0,0-1.1-.531q-.445-.161-.875-.359a3.2,3.2,0,0,1-.674-.459,1.96,1.96,0,0,1-.459-.617,2.314,2.314,0,0,1-.158-.9,1.936,1.936,0,0,1,.761-1.622,3.237,3.237,0,0,1,2.066-.6,6.015,6.015,0,0,1,1.263.129,5.638,5.638,0,0,1,.9.23l-.316,1.406a3.93,3.93,0,0,0-.732-.23,4.165,4.165,0,0,0-1.033-.115,1.741,1.741,0,0,0-.861.187.574.574,0,0,0-.33.545.873.873,0,0,0,.057.33.842.842,0,0,0,.23.273,3.027,3.027,0,0,0,.416.244c.172.076.382.158.631.244a8.714,8.714,0,0,1,1.048.459,2.5,2.5,0,0,1,.7.5,1.624,1.624,0,0,1,.416.631,2.547,2.547,0,0,1,.129.861,1.869,1.869,0,0,1-.8,1.636,3.975,3.975,0,0,1-2.267.545,5.978,5.978,0,0,1-1.593-.172,7.633,7.633,0,0,1-.847-.258l.3-1.449a7.926,7.926,0,0,0,.918.3,4.868,4.868,0,0,0,1.234.144Z" transform="translate(-5.052 -0.66)" fill="#fff"/></svg>