<svg xmlns="http://www.w3.org/2000/svg" width="122.284" height="34" viewBox="0 0 122.284 34"><g transform="translate(-12.9 -8.2)"><g transform="translate(54.548 10.902)"><g transform="translate(0 0)"><path d="M132.22,40.548H117.547a4.846,4.846,0,0,0,1.7,3.076,5.392,5.392,0,0,0,3.533,1.164A6.088,6.088,0,0,0,127.19,43l3.824,1.787a9.186,9.186,0,0,1-3.45,3.034,10.544,10.544,0,0,1-4.78,1,9.526,9.526,0,0,1-6.983-2.7,9.177,9.177,0,0,1-2.7-6.775,9.465,9.465,0,0,1,2.7-6.9,9.024,9.024,0,0,1,6.733-2.743,9.33,9.33,0,0,1,6.983,2.743,9.951,9.951,0,0,1,2.7,7.274Zm-4.531-3.575a4.574,4.574,0,0,0-1.787-2.452,5.2,5.2,0,0,0-3.076-.956,5.613,5.613,0,0,0-3.367,1.081,6.189,6.189,0,0,0-1.663,2.369h9.892Z" transform="translate(-113.1 -23.465)" fill="#fff"/><path d="M168,30.157h4.572v1.87A10.37,10.37,0,0,1,175.4,30.2a6.931,6.931,0,0,1,2.577-.5,6.241,6.241,0,0,1,4.572,1.87,6.584,6.584,0,0,1,1.579,4.738V48.321h-4.489V40.382a19.305,19.305,0,0,0-.291-4.323,3.185,3.185,0,0,0-1-1.621,2.854,2.854,0,0,0-1.787-.54,3.328,3.328,0,0,0-2.369.914,4.82,4.82,0,0,0-1.372,2.577,21.382,21.382,0,0,0-.208,3.7v7.274h-4.572V30.157Z" transform="translate(-145.181 -23.465)" fill="#fff"/><path d="M224.677,29.7a9.714,9.714,0,0,1,8.355,4.78,9.579,9.579,0,0,1,1.289,4.78,9.425,9.425,0,0,1-1.289,4.822,8.817,8.817,0,0,1-3.491,3.491,9.738,9.738,0,0,1-4.863,1.247,9.072,9.072,0,0,1-6.692-2.785,9.648,9.648,0,0,1,.333-13.883A9.27,9.27,0,0,1,224.677,29.7Zm.042,4.281a4.679,4.679,0,0,0-3.533,1.5,5.209,5.209,0,0,0-1.413,3.782,5.177,5.177,0,0,0,1.413,3.824,4.582,4.582,0,0,0,3.533,1.455,4.769,4.769,0,0,0,3.575-1.5,5.309,5.309,0,0,0,1.413-3.824,5.079,5.079,0,0,0-1.413-3.782A4.759,4.759,0,0,0,224.718,33.981Z" transform="translate(-172.762 -23.465)" fill="#fff"/><path d="M268.128,14.7H272.7v6.692h2.7V25.3h-2.7V39.556h-4.572V25.3H265.8V21.392h2.328Z" transform="translate(-202.331 -14.7)" fill="#fff"/><path d="M297.119,63.1a2.675,2.675,0,0,1,1.87.748,2.51,2.51,0,0,1,.748,1.829,2.675,2.675,0,0,1-.748,1.87,2.387,2.387,0,0,1-1.87.748,2.676,2.676,0,0,1-1.87-.748,2.538,2.538,0,0,1-.748-1.87,2.444,2.444,0,0,1,.748-1.829A2.605,2.605,0,0,1,297.119,63.1Z" transform="translate(-219.101 -42.983)" fill="#fbcd02"/></g></g><g transform="translate(12.9 8.2)"><g transform="translate(0 0)"><path d="M22.959,42.2V31.268H12.9L26.367,8.2V19.173h9.851Z" transform="translate(-12.9 -8.2)" fill="#fbcd02"/></g></g></g></svg>