<?xml version="1.0" encoding="iso-8859-1"?>
<!-- Generator: Adobe Illustrator 19.0.0, SVG Export Plug-In . SVG Version: 6.00 Build 0)  -->
<svg version="1.1" id="Layer_1" xmlns="http://www.w3.org/2000/svg" xmlns:xlink="http://www.w3.org/1999/xlink" x="0px" y="0px"
	 viewBox="0 0 512 512" style="enable-background:new 0 0 512 512;" xml:space="preserve">
<g>
	<g>
		<path style="fill:#2D404E;" d="M122.628,192.122c67.727,0,122.628,45.368,122.628,101.333c0,40.287-28.451,75.082-69.657,91.414
			c1.239,6.178,9.214,25.643,21.498,38.982c0,0-42.848-13.818-62.677-31.584c-6.297,0.824-10.992,1.215-17.567,1.215
			C49.127,393.482,0,349.418,0,293.455C0,237.49,54.903,192.122,122.628,192.122z"/>
		<path style="fill:#253744;" d="M197.097,423.851c-12.284-13.34-20.259-32.805-21.498-38.982
			c41.206-16.332,69.657-51.127,69.657-91.414c0-55.964-54.901-101.333-122.628-101.333c0,0,53.185,2.113,85.15,36.656
			s35.211,70.51,15.251,105.834c-19.962,35.322-59.505,45.113-59.505,45.113S168.595,408.849,197.097,423.851z"/>
		<g>
			<g>
				<circle style="fill:#253744;" cx="121.06" cy="292.261" r="17.5"/>
				<circle style="fill:#E2E5E7;" cx="119.869" cy="292.261" r="16.309"/>
			</g>
			<g>
				<circle style="fill:#253744;" cx="71.556" cy="292.261" r="17.5"/>
				<circle style="fill:#E2E5E7;" cx="70.365" cy="292.261" r="16.309"/>
			</g>
		</g>
		<path style="opacity:0.52;fill:#253744;enable-background:new    ;" d="M245.256,293.454c0-38.913-26.542-72.702-65.483-89.681
			L64.045,383.431c16.564,6.116,24.916,8.818,50.302,9.957c6.568,0.295,13.776-0.297,20.073-1.121
			c19.829,17.766,62.677,31.584,62.677,31.584c-12.284-13.34-20.259-32.805-21.498-38.982
			C216.805,368.536,245.256,333.741,245.256,293.454z"/>
	</g>
	<path style="fill:#1D2F3A;" d="M179.773,203.773c0,0-12.161,35.092-0.493,68.162s47.123,65.557,52.942,67.031l5.923-11.424
		l-55.896-122.654L179.773,203.773z"/>
	<g>
		<path style="fill:#EB8923;" d="M345.641,88.149c-91.88,0-166.361,61.547-166.361,137.47c0,54.654,38.599,101.857,94.498,124.013
			c-1.681,8.383-6.977,25.127-23.642,43.221c0,0,42.387-7.371,69.287-31.469c8.542,1.117,17.296,1.705,26.218,1.705
			c91.877,0,166.359-61.549,166.359-137.47C512,149.696,437.518,88.149,345.641,88.149z"/>
		<path style="fill:#D27228;" d="M250.136,392.853c16.665-18.094,21.961-34.838,23.642-43.221
			c-55.899-22.156-94.498-69.359-94.498-124.013c0-75.923,74.481-137.47,166.361-137.47c0,0-72.152,2.868-115.518,49.729
			c-43.364,46.861-47.77,95.655-20.689,143.575c27.08,47.922,80.725,61.203,80.725,61.203S288.802,372.503,250.136,392.853z"/>
		<g>
			<g>
				<circle style="fill:#D27228;" cx="280.61" cy="223.999" r="23.741"/>
				<circle style="fill:#E2E5E7;" cx="282.225" cy="223.999" r="22.126"/>
			</g>
			<g>
				<circle style="fill:#D27228;" cx="347.768" cy="223.999" r="23.741"/>
				<circle style="fill:#E2E5E7;" cx="349.383" cy="223.999" r="22.126"/>
			</g>
			<g>
				<circle style="fill:#D27228;" cx="414.926" cy="223.999" r="23.741"/>
				<circle style="fill:#E2E5E7;" cx="416.541" cy="223.999" r="22.125"/>
			</g>
		</g>
	</g>
</g>
<g>
</g>
<g>
</g>
<g>
</g>
<g>
</g>
<g>
</g>
<g>
</g>
<g>
</g>
<g>
</g>
<g>
</g>
<g>
</g>
<g>
</g>
<g>
</g>
<g>
</g>
<g>
</g>
<g>
</g>
</svg>
