<svg id="Layer_1" enable-background="new 0 0 64 64" height="512" viewBox="0 0 64 64" width="512" xmlns="http://www.w3.org/2000/svg"><g><g><path d="m8.036 5c2.761 0 5 2.239 5 5v5h-5c-2.761 0-5-2.239-5-5 0-2.761 2.238-5 5-5z" fill="#f68820"/></g><g><path d="m45.036 54v-7.5c0-1.105-.895-2-2-2 1.105 0 2-.895 2-2v-19.5-8.5c0-1.105-.895-2-2-2 1.105 0 2-.895 2-2v-.5c0-2.761-2.239-5-5-5h-32c2.761 0 5 2.239 5 5v10.5c0 1.105.895 2 2 2-1.105 0-2 .895-2 2v29.5c0 2.761 2.239 5 5 5h32c-2.762 0-5-2.239-5-5z" fill="#fbbe18"/></g><g><g><path d="m26.036 14.5h12c.552 0 1-.448 1-1 0-.552-.448-1-1-1h-12c-.552 0-1 .448-1 1 0 .552.447 1 1 1z" fill="#f68820"/></g><g><path d="m20.036 19.5h18c.552 0 1-.448 1-1 0-.552-.448-1-1-1h-18c-.552 0-1 .448-1 1 0 .552.447 1 1 1z" fill="#f68820"/></g><g><path d="m20.036 24.5h18c.552 0 1-.448 1-1 0-.552-.448-1-1-1h-18c-.552 0-1 .448-1 1 0 .552.447 1 1 1z" fill="#f68820"/></g><g><path d="m20.036 29.5h18c.552 0 1-.448 1-1 0-.552-.448-1-1-1h-18c-.552 0-1 .448-1 1 0 .552.447 1 1 1z" fill="#f68820"/></g><g><path d="m20.036 34.5h18c.552 0 1-.448 1-1 0-.552-.448-1-1-1h-18c-.552 0-1 .448-1 1 0 .552.447 1 1 1z" fill="#f68820"/></g><g><path d="m20.036 39.5h18c.552 0 1-.448 1-1 0-.552-.448-1-1-1h-18c-.552 0-1 .448-1 1 0 .552.447 1 1 1z" fill="#f68820"/></g><g><path d="m20.036 44.5h8.5c.552 0 1-.448 1-1 0-.552-.448-1-1-1h-8.5c-.552 0-1 .448-1 1 0 .552.447 1 1 1z" fill="#f68820"/></g></g><g><path d="m18.036 49c-1.381 0-2.5 1.119-2.5 2.5s1.119 2.5 2.5 2.5h7.5v-5z" fill="#bf6b1e"/></g><g><path d="m18.036 49c2.761 0 5 2.239 5 5 0 2.761-2.239 5-5 5h32c2.761 0 5-2.239 5-5 0-2.761-2.239-5-5-5z" fill="#f68820"/></g><g><g><path d="m35.036 39.5h5.929c1.326 0 2.598-.527 3.536-1.464l15-15c1.953-1.953 1.953-5.118 0-7.071l-.929-.929c-1.953-1.953-5.118-1.953-7.071 0l-15 15c-.938.938-1.464 2.209-1.464 3.536v5.928z" fill="#b3b4b6"/></g><g><path d="m35.036 39.5h5.929c1.326 0 2.598-.527 3.536-1.464l15-15c1.953-1.953 1.953-5.118 0-7.071l-.465-.465z" fill="#808080"/></g><g><path d="m48.036 26.5v-8l3.464-3.464c1.953-1.953 5.118-1.953 7.071 0l.929.929c1.953 1.953 1.953 5.118 0 7.071l-3.464 3.464z" fill="#55525b"/></g><g><path d="m48.036 26.5 11-11 .464.464c1.953 1.953 1.953 5.118 0 7.071l-3.464 3.465z" fill="#353744"/></g><g><path d="m31.036 44c-.128 0-.256-.049-.354-.146-.195-.195-.195-.512 0-.707l28-28c.195-.195.512-.195.707 0s.195.512 0 .707l-28 28c-.097.097-.225.146-.353.146z" fill="#dbdee3"/></g></g></g></svg>