<svg id="Capa_1" enable-background="new 0 0 512 512" height="512" viewBox="0 0 512 512" width="512" xmlns="http://www.w3.org/2000/svg"><g><path d="m354.03 31.622h-296.13c-31.93 0-57.9 25.97-57.9 57.9v259.5c0 12.29 13.899 19.218 23.71 12.21l82.47-58.84c6.92-4.93 15.06-7.54 23.56-7.54h181.39c31.93 0 57.9-25.97 57.9-57.9v-190.33c0-8.28-6.72-15-15-15zm-72.86 181.71h-173.31c-8.28 0-15-6.71-15-15 0-8.28 6.72-15 15-15h173.31c8.28 0 15 6.72 15 15 0 8.29-6.72 15-15 15zm0-70h-173.31c-8.28 0-15-6.71-15-15 0-8.28 6.72-15 15-15h173.31c8.28 0 15 6.72 15 15 0 8.29-6.72 15-15 15z"/><path d="m512 205.872v259.49c0 12.207-13.829 19.268-23.71 12.21l-82.47-58.83c-6.92-4.93-15.06-7.54-23.56-7.54h-181.39c-31.93 0-57.9-25.98-57.9-57.91v-28.44h168.16c48.47 0 87.9-39.43 87.9-87.9v-88.99h55.07c31.93 0 57.9 25.98 57.9 57.91z"/></g></svg>